if (_typeface_js && _typeface_js.loadFace) _typeface_js.loadFace({"glyphs":{"0":{"ha":690,"x_min":249,"x_max":758,"o":"m 758 597 q 646 236 758 432 q 368 17 521 17 q 279 68 317 17 q 249 169 249 117 q 382 510 249 319 q 668 710 524 710 q 736 674 710 710 q 758 597 758 638 m 388 68 q 606 281 490 68 q 707 589 707 475 q 658 667 707 667 q 426 481 550 667 q 311 182 311 304 q 331 106 311 143 q 388 68 350 68 z "},"1":{"ha":690,"x_min":267,"x_max":760,"o":"m 760 699 q 671 563 758 690 l 485 288 q 325 32 332 53 l 307 0 l 283 0 l 267 19 q 317 144 274 65 q 444 333 361 222 q 657 646 631 583 l 656 651 l 614 651 l 614 672 q 732 724 671 688 l 760 699 z "},"2":{"ha":690,"x_min":47,"x_max":792,"o":"m 671 133 l 679 117 q 499 -7 583 -7 q 400 21 451 -7 l 310 72 q 92 -39 157 -39 q 61 -19 75 -39 q 47 22 47 1 q 101 124 47 83 q 215 157 150 157 q 267 146 235 157 l 317 136 q 329 143 325 140 q 361 168 339 150 q 738 629 738 486 q 682 686 738 686 q 526 614 619 686 q 461 556 494 588 q 385 478 428 525 l 314 406 q 304 418 307 413 l 299 436 q 453 618 299 506 q 681 724 603 724 q 759 694 726 724 q 792 617 792 664 q 672 390 792 526 q 478 203 610 324 l 365 115 l 429 72 q 499 46 474 46 q 606 88 547 46 l 671 133 m 76 22 q 108 13 86 13 l 125 17 q 197 49 147 17 l 268 96 q 214 110 254 110 q 124 86 172 110 q 76 22 76 63 z "},"3":{"ha":690,"x_min":122,"x_max":764,"o":"m 122 107 q 203 285 122 190 l 224 267 l 188 194 q 176 162 183 186 q 169 118 169 138 q 203 46 169 74 q 279 18 236 18 q 491 108 376 18 q 606 293 606 197 q 574 374 606 336 q 425 313 479 313 q 346 369 346 313 q 388 436 346 411 q 467 456 422 456 q 572 431 518 456 q 713 631 713 543 q 650 678 713 678 q 532 631 596 678 q 436 542 496 604 q 414 575 414 549 q 508 676 414 621 q 650 726 596 726 q 731 703 697 726 q 764 635 764 679 q 714 506 764 571 q 614 404 699 486 q 660 296 660 342 q 524 68 660 175 q 271 -32 396 -32 q 167 8 211 -32 q 122 107 122 47 m 382 371 q 398 358 388 364 q 421 353 408 353 q 483 367 451 353 l 488 371 q 532 399 522 379 q 468 415 490 415 q 382 376 433 415 l 382 371 z "},"4":{"ha":690,"x_min":149,"x_max":858,"o":"m 858 686 l 717 488 q 586 285 633 371 l 588 279 l 661 274 q 717 243 717 265 q 707 221 717 231 l 696 221 l 650 224 l 607 226 l 546 222 l 468 113 q 397 -1 421 49 q 361 29 361 -1 q 408 124 361 46 l 469 222 l 447 228 q 164 183 303 228 q 149 229 149 196 q 593 604 149 322 q 839 721 701 674 l 858 686 m 214 256 l 242 254 q 301 256 275 254 q 365 263 326 257 q 440 274 403 269 q 504 279 478 279 q 636 453 561 343 l 760 633 l 751 636 q 738 630 743 633 q 718 617 732 626 l 353 375 l 214 256 z "},"5":{"ha":690,"x_min":178,"x_max":828,"o":"m 436 425 q 549 461 519 461 q 633 429 600 461 q 669 349 669 400 q 547 106 669 225 q 299 -14 425 -14 q 212 31 246 -14 q 178 132 178 75 q 201 215 178 167 l 236 226 l 244 221 q 225 124 225 165 q 246 64 225 92 q 301 40 267 40 q 505 149 390 40 q 619 349 619 258 q 538 404 619 404 q 376 343 481 404 q 351 383 351 358 q 388 449 351 413 q 438 525 392 460 q 563 676 528 650 q 757 713 618 713 q 819 703 790 713 q 828 678 828 690 l 826 669 q 635 647 649 653 q 547 590 582 635 l 436 425 z "},"6":{"ha":690,"x_min":217,"x_max":825,"o":"m 415 449 q 543 489 488 489 q 629 451 592 489 q 667 361 667 413 q 564 121 667 246 q 346 -11 457 -11 q 253 36 290 -11 q 217 140 217 83 q 308 399 217 253 q 522 632 396 538 q 771 735 657 735 q 821 694 825 735 l 801 694 q 583 615 699 694 q 415 449 489 550 m 342 38 q 519 153 426 38 q 611 360 611 269 q 590 415 611 389 q 538 440 568 440 q 352 336 436 440 q 268 128 268 232 q 290 67 268 96 q 342 38 311 38 z "},"7":{"ha":690,"x_min":246,"x_max":821,"o":"m 275 -11 q 246 40 246 25 q 292 113 246 56 l 750 664 q 604 649 685 664 l 460 621 l 454 626 q 463 675 458 667 q 506 688 467 679 q 645 708 583 701 q 760 715 707 715 q 800 708 788 715 q 821 672 813 700 l 763 607 l 275 -11 z "},"8":{"ha":690,"x_min":201,"x_max":760,"o":"m 201 133 q 283 311 201 243 q 464 401 335 356 l 468 414 q 446 466 454 440 q 438 515 438 492 q 497 658 438 590 q 629 725 556 725 q 719 693 679 725 q 760 610 760 661 q 556 386 760 486 q 611 231 611 292 q 533 63 611 143 q 365 -17 454 -17 q 248 25 294 -17 q 201 133 201 67 m 629 675 q 533 624 574 675 q 492 515 492 572 q 524 418 492 468 q 639 490 588 444 q 703 603 703 547 q 681 653 703 632 q 629 675 658 675 m 250 132 q 280 65 250 96 q 347 33 310 33 q 483 89 419 33 q 547 218 547 144 q 490 365 547 282 q 385 314 428 336 q 331 283 342 292 q 250 132 250 224 z "},"9":{"ha":690,"x_min":218,"x_max":768,"o":"m 603 328 q 451 268 518 268 q 363 309 401 268 q 325 401 325 350 q 427 612 325 506 q 633 718 529 718 q 730 680 692 718 q 768 585 768 642 q 615 256 768 446 q 336 14 474 76 l 240 -14 q 218 17 224 -4 q 435 143 344 67 q 603 328 518 211 m 476 322 q 642 413 565 322 q 718 593 718 503 q 699 651 718 626 q 646 675 679 675 q 466 587 558 675 q 374 410 374 499 q 404 344 374 369 q 432 330 415 338 q 476 322 449 322 z "}," ":{"ha":258,"x_min":0,"x_max":0,"o":""},"!":{"ha":578,"x_min":71,"x_max":688,"o":"m 688 879 q 442 488 688 867 q 168 92 196 108 q 144 126 147 113 q 396 526 144 157 l 651 896 q 688 879 672 896 m 147 38 q 135 2 147 17 q 101 -14 122 -12 q 71 -1 86 -14 q 119 69 71 69 q 147 38 147 69 z "},"\"":{"ha":428,"x_min":443,"x_max":581,"o":"m 501 929 l 486 679 l 471 667 l 443 688 l 443 693 q 444 747 443 715 q 452 848 446 779 q 468 938 458 917 l 501 929 m 554 633 q 525 658 544 638 q 533 786 525 707 l 546 914 q 563 924 553 921 l 581 914 l 581 771 q 574 678 581 713 q 554 633 567 644 z "},"#":{"ha":875,"x_min":35,"x_max":904,"o":"m 507 901 l 408 608 l 639 608 l 743 900 l 790 900 l 689 608 l 904 608 l 886 567 l 674 567 l 594 338 l 808 338 l 793 297 l 578 297 l 472 0 l 429 0 l 529 297 l 296 297 l 192 0 l 147 0 l 249 297 l 35 297 l 47 338 l 261 338 l 340 567 l 128 567 l 140 608 l 357 608 l 463 901 l 507 901 m 544 338 l 624 567 l 392 567 l 310 338 l 544 338 z "},"$":{"ha":347,"x_min":139,"x_max":525,"o":"m 511 664 l 524 663 l 525 656 q 519 640 522 647 q 499 604 515 632 l 465 549 q 518 507 501 536 l 499 485 q 446 513 458 513 q 406 460 419 481 q 374 404 393 439 q 419 317 419 350 q 371 228 419 263 q 269 199 329 199 q 233 193 240 199 l 214 160 q 154 64 179 94 l 139 72 q 210 214 147 114 l 189 239 q 172 279 172 256 q 190 308 172 299 l 210 281 q 236 260 222 265 q 275 314 250 268 l 310 375 q 286 440 286 418 q 429 558 286 544 q 474 612 449 571 q 511 664 500 653 m 339 447 q 350 429 339 435 l 403 514 l 394 517 q 355 494 371 517 q 339 447 339 472 m 364 308 q 336 350 364 342 l 269 247 q 289 243 278 243 q 341 262 318 243 q 364 308 364 281 z "},"%":{"ha":663,"x_min":161,"x_max":864,"o":"m 849 607 l 864 589 q 838 543 864 568 l 268 6 q 182 -108 218 -43 q 161 -75 161 -100 q 728 514 161 6 q 594 479 650 479 q 555 481 569 479 q 506 489 540 482 q 450 401 471 425 q 361 354 410 354 q 253 481 253 354 q 300 635 253 554 q 422 726 354 726 q 499 688 467 726 q 531 604 531 650 q 522 529 531 567 q 556 522 539 525 q 589 519 574 519 q 722 551 650 519 l 849 607 m 719 81 q 671 -89 719 0 q 542 -190 614 -190 q 471 -156 500 -190 q 444 -76 444 -121 q 490 93 444 10 q 622 189 543 189 q 690 155 660 189 q 719 81 719 121 m 479 549 q 492 615 492 599 q 478 646 492 640 q 454 596 454 629 q 479 549 454 561 m 350 397 q 464 513 413 397 q 418 583 418 553 q 454 675 418 625 l 446 685 q 332 611 376 685 q 293 474 293 546 q 350 397 293 397 m 540 -154 q 644 -61 597 -154 q 685 83 685 19 q 667 133 685 111 q 622 156 649 156 q 521 67 567 156 q 482 -75 482 -11 q 497 -130 482 -106 q 540 -154 513 -154 z "},"&":{"ha":1035,"x_min":240,"x_max":1122,"o":"m 882 622 q 933 663 889 633 q 965 725 958 678 q 901 756 947 756 q 721 696 819 756 q 610 553 610 631 l 611 544 l 614 536 l 678 542 q 785 525 732 542 q 853 457 853 501 q 754 392 853 392 q 651 415 690 392 q 571 485 625 431 q 293 172 293 376 q 349 57 293 103 q 472 17 400 17 q 681 72 569 17 q 811 222 811 135 q 769 269 811 242 l 725 272 q 610 244 661 272 q 539 193 578 226 q 496 164 507 164 l 490 168 l 485 182 q 521 242 485 207 q 788 318 606 318 l 851 318 l 914 317 q 1113 365 1039 317 l 1122 358 q 950 268 1114 268 l 889 269 l 840 272 q 865 208 865 236 q 719 31 865 108 q 482 -32 596 -32 q 311 26 378 -32 q 240 192 240 89 q 382 436 240 315 q 463 485 408 458 l 547 524 q 565 544 563 532 q 679 729 565 653 q 896 797 782 797 q 1018 724 1018 797 q 899 592 1018 653 l 882 622 m 754 428 q 803 449 786 428 q 674 500 803 500 q 647 499 663 500 q 615 493 632 497 q 674 449 625 471 q 754 428 724 428 z "},"'":{"ha":357,"x_min":414,"x_max":603,"o":"m 603 764 l 510 688 q 421 626 440 631 l 414 638 l 414 661 q 589 804 514 760 q 603 781 601 794 l 603 764 z "},"(":{"ha":472,"x_min":161,"x_max":674,"o":"m 674 871 q 619 815 658 850 l 564 763 q 388 536 469 660 q 267 281 288 383 l 267 261 q 241 183 251 219 q 224 115 231 147 q 214 -40 214 57 l 193 -40 l 171 -25 l 161 -1 l 161 13 q 310 514 161 233 q 653 900 465 808 l 674 871 z "},")":{"ha":467,"x_min":228,"x_max":733,"o":"m 733 856 q 704 708 733 803 q 588 392 640 500 q 401 110 521 250 q 250 -39 315 8 l 236 -39 l 228 -31 q 281 47 228 -14 l 351 128 q 692 894 639 494 l 697 894 q 722 882 710 894 q 733 856 731 871 z "},"*":{"ha":385,"x_min":426,"x_max":639,"o":"m 543 883 q 549 818 543 833 l 585 838 l 621 851 l 633 847 l 639 835 q 610 810 633 822 l 575 793 q 604 781 582 785 q 633 769 626 776 l 624 744 q 599 749 615 746 q 557 758 582 751 l 553 757 l 551 749 l 550 740 q 556 715 550 728 l 558 703 l 561 689 l 556 675 l 543 672 q 521 710 529 672 q 510 750 513 747 l 449 704 l 435 704 l 426 721 q 464 758 426 738 l 471 769 l 433 778 l 426 792 q 438 814 426 804 l 508 804 l 508 883 l 514 892 l 543 883 z "},"+":{"ha":774,"x_min":178,"x_max":967,"o":"m 594 789 l 594 415 l 967 415 l 967 375 l 594 375 l 594 0 l 553 0 l 553 374 l 178 374 l 178 415 l 553 415 l 553 789 l 594 789 z "},",":{"ha":343,"x_min":71,"x_max":267,"o":"m 89 -89 l 71 -64 q 151 35 71 -33 q 254 104 232 104 l 261 86 l 267 65 q 188 -15 267 54 q 89 -89 108 -85 z "},"-":{"ha":565,"x_min":193,"x_max":521,"o":"m 519 194 l 428 197 l 314 196 l 276 190 l 240 186 q 193 226 207 186 q 390 251 289 251 q 504 242 454 251 q 521 206 521 217 l 521 200 l 519 194 z "},".":{"ha":279,"x_min":143,"x_max":219,"o":"m 143 1 q 176 56 143 56 q 204 47 192 56 q 219 21 217 38 q 190 -24 219 -4 l 163 -19 q 143 1 151 -19 z "},"/":{"ha":682,"x_min":268,"x_max":813,"o":"m 813 981 l 303 -51 l 268 -51 l 778 981 l 813 981 z "},":":{"ha":383,"x_min":163,"x_max":344,"o":"m 344 218 q 297 182 344 182 q 264 219 264 182 q 319 260 264 260 q 344 218 344 243 m 163 28 q 175 57 163 44 q 206 69 188 69 q 233 56 219 69 q 246 28 246 43 q 189 -12 246 -12 q 163 28 163 3 z "},";":{"ha":390,"x_min":71,"x_max":383,"o":"m 383 263 q 336 226 379 226 q 314 239 325 226 q 304 265 307 250 q 343 306 304 306 q 383 263 367 306 m 271 63 l 271 28 q 88 -82 240 0 q 71 -39 75 -71 q 160 20 79 -28 q 257 72 240 68 l 271 63 z "},"<":{"ha":635,"x_min":58,"x_max":681,"o":"m 114 404 l 681 157 l 681 93 l 58 358 l 58 449 l 681 715 l 681 649 l 114 404 z "},"=":{"ha":1175,"x_min":250,"x_max":1289,"o":"m 1289 578 l 1289 525 l 250 525 l 250 578 l 1289 578 m 1289 265 l 1289 213 l 250 213 l 250 265 l 1289 265 z "},">":{"ha":635,"x_min":64,"x_max":689,"o":"m 64 93 l 64 157 l 626 404 l 64 649 l 64 715 l 689 449 l 689 358 l 64 93 z "},"?":{"ha":692,"x_min":71,"x_max":800,"o":"m 183 167 q 163 199 163 188 q 315 385 163 275 l 597 578 q 750 789 750 693 q 717 846 750 828 q 643 864 685 864 q 410 796 533 864 q 251 621 272 721 l 265 608 q 354 631 306 608 l 438 675 l 442 660 q 424 629 442 647 l 397 603 l 336 576 q 269 563 294 563 q 229 588 249 563 q 213 638 213 613 q 381 833 213 746 q 646 908 526 908 q 754 867 708 908 q 800 764 800 826 q 722 615 800 697 q 560 486 667 557 l 417 394 q 193 167 285 306 l 183 167 m 157 58 q 141 16 157 43 q 108 -11 125 -11 q 71 17 79 -11 q 138 90 89 86 q 157 58 156 76 z "},"@":{"ha":1315,"x_min":328,"x_max":1356,"o":"m 608 325 q 682 550 608 446 q 875 665 761 665 q 990 623 942 665 q 1053 514 1039 581 l 1093 649 l 1129 649 l 1063 443 q 1021 240 1021 307 q 1040 183 1021 207 q 1094 163 1061 163 q 1269 276 1206 163 q 1324 494 1324 372 q 1190 779 1324 672 q 885 876 1068 876 q 517 724 668 876 q 365 354 365 572 q 515 14 365 147 q 869 -110 658 -110 q 1279 25 1057 -110 l 1293 6 q 851 -140 1094 -140 q 476 -4 625 -140 q 328 360 328 132 q 493 752 328 596 q 896 908 658 908 q 1221 801 1096 908 q 1356 490 1356 686 q 1294 251 1356 356 q 1099 125 1222 125 q 974 236 983 125 q 792 124 892 124 q 657 181 706 124 q 608 325 608 238 m 782 161 q 960 274 885 161 q 1025 485 1025 375 q 985 589 1025 544 q 888 633 947 633 q 707 525 782 633 q 642 315 642 428 q 682 208 642 254 q 782 161 722 161 z "},"A":{"ha":1246,"x_min":128,"x_max":1539,"o":"m 1300 475 l 1326 461 l 1333 444 l 1328 428 l 1253 425 q 1157 278 1197 354 q 1103 115 1103 178 q 1140 64 1103 64 q 1251 106 1190 64 l 1344 185 q 1360 172 1357 185 q 1267 72 1360 136 q 1133 8 1174 8 q 1075 46 1096 8 q 1054 121 1054 83 q 1096 282 1054 192 q 1181 426 1117 325 l 1017 428 l 931 426 l 768 263 q 574 100 657 154 q 465 46 515 64 q 364 28 414 28 q 213 90 299 28 q 128 215 128 151 q 140 240 128 226 q 167 256 153 254 q 249 135 222 161 q 379 81 301 81 q 625 210 475 81 q 714 293 658 239 q 833 417 769 347 l 746 411 l 744 417 l 743 422 q 810 476 743 464 l 906 485 q 1179 763 1001 603 q 1478 957 1397 957 q 1519 940 1499 957 q 1539 900 1539 922 q 1440 688 1539 838 l 1296 482 l 1300 475 m 989 485 l 1067 482 l 1142 483 l 1217 483 l 1372 689 q 1488 901 1475 832 q 1464 914 1479 914 q 1357 849 1439 914 q 1257 758 1294 799 l 1018 517 l 989 485 z "},"B":{"ha":1250,"x_min":196,"x_max":1456,"o":"m 1232 289 q 1113 78 1232 164 q 872 3 1006 3 q 660 82 756 3 q 418 -6 522 -6 q 258 67 319 -6 q 196 239 196 139 l 196 250 q 381 597 196 413 q 715 839 529 747 q 1193 969 981 969 q 1360 939 1289 969 q 1456 815 1456 897 q 1306 601 1456 700 q 1051 488 1203 533 q 1232 289 1232 408 m 1190 926 q 807 820 1035 926 q 425 561 579 714 q 250 224 250 388 q 300 103 250 154 q 424 51 350 51 q 611 129 513 51 q 547 250 564 194 l 575 272 q 658 165 590 242 q 790 315 701 201 q 897 469 879 428 l 860 478 q 826 493 836 482 l 843 514 l 892 514 q 927 522 917 514 q 954 558 938 529 l 1029 713 q 1118 858 1076 810 q 1144 840 1143 858 q 997 526 1144 800 q 1247 625 1132 557 q 1404 821 1404 717 q 1321 906 1404 876 q 1190 926 1263 926 m 708 119 q 796 75 751 90 q 889 60 840 60 q 1078 117 994 60 q 1169 283 1169 179 q 958 460 1169 404 q 874 338 935 419 q 708 119 814 256 z "},"C":{"ha":792,"x_min":156,"x_max":1053,"o":"m 710 571 q 735 554 710 554 q 906 659 807 554 q 1006 839 1006 764 q 885 921 1006 921 q 585 817 747 921 q 326 567 431 717 q 217 268 217 407 q 407 58 217 58 q 749 214 558 58 l 764 201 q 608 53 719 114 q 399 -3 504 -3 q 220 78 285 -3 q 156 272 156 158 q 271 593 156 428 q 548 853 378 746 q 869 960 718 960 q 990 928 940 960 q 1053 825 1053 890 q 929 612 1053 733 q 714 490 806 490 q 672 512 689 490 q 654 560 654 533 q 700 669 654 611 q 799 726 746 726 q 821 699 811 726 q 749 646 765 663 q 710 571 710 610 z "},"D":{"ha":1132,"x_min":38,"x_max":1254,"o":"m 983 813 q 1003 789 1001 808 q 797 451 1003 749 q 540 94 631 210 q 707 61 636 61 q 1044 242 882 61 q 1206 600 1206 424 q 1113 825 1206 744 q 878 900 1025 900 q 390 706 622 900 l 382 706 q 369 724 369 714 q 590 886 369 811 q 755 932 681 917 q 889 947 829 947 q 1153 854 1051 947 q 1254 599 1254 761 q 1083 198 1254 390 q 706 6 911 6 q 489 50 569 6 q 200 -71 324 -71 q 94 -42 147 -71 q 38 44 38 -8 q 96 136 38 107 q 211 160 143 160 q 271 157 243 160 q 342 144 299 154 l 469 115 l 736 489 q 983 813 943 781 m 72 46 q 125 -4 72 17 q 203 -21 167 -21 q 414 67 294 -21 q 199 113 274 113 q 114 98 156 113 q 72 46 72 83 z "},"E":{"ha":724,"x_min":143,"x_max":1125,"o":"m 1075 872 q 975 915 1075 915 q 710 842 846 915 q 513 660 575 769 q 489 586 489 617 l 490 581 l 492 574 q 640 593 561 593 q 749 576 703 593 q 813 503 813 553 q 763 426 813 454 q 665 406 722 406 q 492 464 558 406 l 450 506 q 283 378 353 465 q 207 186 207 282 q 400 6 207 6 q 626 65 511 6 q 825 193 668 89 l 838 179 q 644 10 739 67 q 400 -60 531 -60 q 224 7 304 -60 q 143 174 143 74 q 233 408 143 308 q 438 560 299 482 q 621 854 438 728 q 961 965 785 965 q 1063 947 1017 965 q 1125 878 1125 924 q 1042 758 1125 821 q 903 701 964 701 q 868 729 874 701 q 931 754 903 742 q 990 786 958 767 q 1075 872 1075 835 m 642 549 q 507 524 518 549 q 667 453 574 453 q 763 501 763 453 q 642 549 742 549 z "},"F":{"ha":1142,"x_min":224,"x_max":1635,"o":"m 1635 881 q 1553 774 1635 813 q 1413 744 1490 744 q 1256 761 1360 744 q 1144 628 1221 729 q 1053 490 1068 526 l 1119 481 q 1168 451 1168 472 q 1156 425 1168 440 l 1111 426 l 1067 428 l 1051 428 q 997 413 1013 428 l 967 364 q 775 90 844 167 q 492 -54 642 -54 q 298 36 372 -54 q 224 249 224 126 q 283 361 224 361 l 292 357 q 272 235 272 275 q 335 73 272 143 q 488 3 397 3 q 758 157 631 3 q 935 435 803 211 l 733 435 q 860 490 733 490 l 918 488 l 961 486 q 994 513 976 486 l 1194 781 l 982 861 q 763 903 854 903 q 569 826 638 903 q 524 742 538 790 q 511 625 511 693 l 501 604 l 492 603 q 454 681 454 603 q 561 886 454 814 q 793 947 654 947 q 1115 875 928 947 q 1247 829 1169 853 q 1522 950 1410 950 q 1594 935 1564 950 q 1635 881 1635 918 m 1586 872 q 1513 907 1586 907 q 1318 813 1433 907 q 1429 793 1374 793 q 1525 810 1479 793 q 1586 872 1586 831 z "},"G":{"ha":965,"x_min":69,"x_max":1338,"o":"m 1189 951 q 792 830 1024 951 q 401 535 561 708 q 225 172 225 342 q 246 106 225 135 q 303 76 267 76 q 611 233 407 76 q 888 476 751 340 q 943 542 910 499 q 1017 646 976 586 q 1151 811 1093 758 q 1197 829 1174 829 q 1222 811 1222 829 q 1143 715 1193 782 l 761 117 l 932 194 q 1099 258 1051 247 l 1106 257 q 1088 228 1106 238 q 897 126 1056 196 q 703 28 739 57 q 643 -56 692 18 l 488 -293 q 188 -510 346 -510 q 103 -482 136 -510 q 69 -404 69 -454 q 129 -262 69 -322 q 258 -169 153 -239 q 581 22 340 -115 q 722 169 649 60 l 832 350 q 578 138 635 179 q 293 6 400 6 q 194 61 232 6 q 164 175 164 111 q 239 406 164 272 q 385 604 297 513 q 746 878 536 761 q 1171 1008 983 1008 q 1275 993 1233 1008 q 1338 925 1338 972 q 1289 863 1338 879 l 1286 867 l 1288 893 q 1189 951 1288 951 m 126 -394 q 188 -457 126 -457 q 371 -353 272 -457 q 504 -174 421 -299 l 547 -111 q 581 -47 579 -65 q 283 -211 476 -99 q 181 -276 188 -269 q 126 -376 126 -321 l 126 -394 z "},"H":{"ha":1264,"x_min":196,"x_max":1518,"o":"m 843 560 q 1008 562 943 560 q 1163 568 1074 564 l 1349 817 l 1460 944 q 1503 965 1476 965 l 1515 957 l 1518 946 q 1388 771 1518 933 q 1249 568 1257 608 l 1276 558 l 1276 546 q 1285 524 1285 535 q 1278 504 1285 515 l 1204 504 q 1056 158 1056 272 q 1081 78 1056 117 q 1149 40 1107 40 q 1261 89 1200 40 l 1364 164 l 1371 153 l 1371 142 q 1135 -11 1238 -11 q 1033 56 1078 -11 q 999 176 999 114 q 1122 496 999 274 l 1115 504 l 797 493 l 611 207 q 381 0 478 0 q 249 82 308 0 q 196 233 196 156 q 219 275 196 275 l 226 274 l 267 143 q 363 64 300 64 q 483 139 417 64 q 519 185 501 160 q 571 263 538 211 l 647 374 q 688 437 671 408 q 713 483 704 465 l 711 490 q 653 488 671 490 q 596 479 635 486 l 593 483 l 592 489 q 676 540 592 524 q 765 563 760 557 l 765 568 q 844 685 778 576 q 967 874 926 819 q 1078 972 1040 972 q 1097 964 1085 972 q 1072 929 1093 950 l 1046 896 l 843 560 z "},"I":{"ha":672,"x_min":156,"x_max":1188,"o":"m 325 -6 q 197 79 247 -6 q 156 238 156 150 q 217 358 156 322 l 225 353 q 215 303 219 329 q 211 254 211 276 q 242 131 211 192 q 335 60 278 60 q 535 243 419 60 l 860 764 l 947 881 l 789 814 q 695 766 733 789 q 625 715 657 743 q 550 574 550 650 q 603 429 550 492 q 569 414 585 417 q 515 483 538 414 q 499 579 499 538 q 588 760 499 683 q 785 867 651 817 l 983 936 q 1013 950 992 939 q 1076 989 1033 961 q 1172 1025 1138 1025 l 1179 1022 l 1185 1018 l 1188 1011 l 1188 1003 q 1104 953 1188 990 q 1015 911 1021 917 q 965 846 993 893 l 922 769 l 625 268 q 325 -6 463 -6 z "},"J":{"ha":1010,"x_min":4,"x_max":1178,"o":"m 1165 399 l 1178 389 l 1178 371 l 1015 294 q 872 208 894 236 l 665 -49 q 426 -278 543 -192 q 74 -457 185 -457 q 24 -431 44 -457 q 4 -374 4 -404 q 254 -62 4 -237 q 628 154 369 17 l 739 210 q 840 276 804 244 q 1008 558 915 343 q 1101 875 1101 772 q 1011 997 1101 997 q 775 885 900 997 q 590 633 668 786 q 513 372 513 481 q 531 285 513 332 q 585 238 550 238 q 629 246 604 238 q 563 194 597 194 q 482 267 513 194 q 465 322 471 296 q 460 382 460 349 q 572 724 460 558 q 769 928 646 831 q 904 1014 842 985 q 1018 1043 967 1043 q 1122 986 1082 1043 q 1158 869 1158 935 q 1079 579 1158 750 l 939 306 q 999 333 964 318 q 1051 354 1035 347 l 1165 399 m 49 -369 q 63 -399 49 -387 q 96 -412 78 -411 q 471 -174 210 -412 q 782 176 710 44 q 576 69 768 179 l 353 -58 q 167 -192 261 -110 q 49 -369 49 -297 z "},"K":{"ha":1113,"x_min":196,"x_max":1438,"o":"m 718 553 q 821 267 810 290 q 990 56 913 56 q 1122 117 1044 56 q 1185 164 1157 144 q 1207 179 1194 171 q 1218 164 1217 179 q 1127 65 1218 126 q 990 3 1036 3 q 828 104 899 3 q 726 321 775 178 l 667 524 q 627 508 647 518 q 575 479 607 499 q 528 411 569 475 l 322 96 q 226 17 285 38 q 196 44 197 31 l 196 51 q 258 108 239 75 l 481 457 q 449 451 458 453 q 419 450 440 450 q 338 467 375 450 q 292 532 292 488 q 372 633 292 599 q 510 660 433 660 q 610 647 561 660 l 776 901 q 889 1025 856 1025 q 929 1010 899 1025 q 786 825 864 944 l 664 626 l 690 597 q 814 674 742 628 q 961 771 886 719 l 1228 953 q 1397 1031 1343 1031 q 1408 1025 1404 1026 q 1438 1007 1422 1018 q 1289 925 1381 979 l 718 553 m 346 543 q 438 501 346 501 q 522 526 493 501 q 574 601 535 538 l 501 613 q 405 593 464 613 q 346 543 346 574 m 636 567 l 626 578 l 611 553 l 636 567 z "},"L":{"ha":1035,"x_min":146,"x_max":1549,"o":"m 664 121 q 881 42 792 42 q 1025 92 950 42 q 1140 194 1057 113 l 1165 181 q 1042 40 1119 97 q 876 -18 965 -18 q 743 14 817 -18 l 618 75 q 331 -56 456 -56 q 210 -28 260 -56 q 146 72 146 8 q 215 185 146 144 q 351 218 274 218 q 606 143 472 218 q 669 214 633 163 l 1024 703 q 764 882 764 778 q 788 924 764 910 q 901 792 839 829 q 977 765 932 775 q 1074 754 1022 754 q 1249 901 1151 838 q 1358 960 1307 940 q 1456 979 1410 979 q 1521 960 1493 979 q 1549 906 1549 943 q 1396 744 1549 804 q 1271 710 1338 722 q 1138 697 1204 697 l 1101 699 l 885 408 q 664 121 753 226 m 1157 749 l 1208 747 q 1292 757 1249 747 q 1382 789 1335 767 q 1510 904 1485 836 q 1461 925 1501 925 q 1157 749 1319 925 m 200 76 q 253 11 200 36 q 340 -7 296 -7 q 563 100 439 -7 q 350 171 433 171 q 200 76 200 171 z "},"M":{"ha":1450,"x_min":193,"x_max":1715,"o":"m 1328 -4 q 1254 46 1292 -4 q 1222 132 1222 90 q 1317 371 1222 225 l 1507 633 q 1646 875 1618 786 l 1638 883 q 1306 574 1572 883 l 986 178 q 836 46 879 46 q 803 68 817 46 q 790 107 790 85 q 871 371 790 193 q 938 508 886 403 q 1019 671 960 553 q 1100 871 1100 832 q 1088 889 1100 886 q 836 589 1051 889 l 582 219 q 303 4 429 4 q 227 45 261 4 q 193 131 193 86 l 196 168 l 200 169 q 240 113 211 169 q 303 57 265 57 q 568 286 401 57 l 856 714 q 1118 943 1018 943 q 1157 896 1157 943 q 1000 509 1157 810 q 843 135 843 208 q 858 121 843 122 l 892 158 l 1264 614 q 1669 957 1561 957 q 1699 945 1685 957 q 1715 915 1713 933 q 1543 586 1715 850 l 1346 296 q 1282 115 1282 197 q 1299 72 1282 92 q 1340 51 1315 51 q 1449 94 1388 51 q 1542 172 1474 113 q 1558 156 1558 165 q 1464 56 1558 117 q 1328 -4 1369 -4 z "},"N":{"ha":1167,"x_min":178,"x_max":1485,"o":"m 1458 946 q 1485 904 1485 938 q 1310 568 1485 879 l 1097 197 q 1019 78 1063 135 q 922 -7 956 -7 q 883 100 883 -7 q 938 474 883 229 q 972 644 957 568 q 999 846 999 782 l 990 851 q 972 836 978 851 l 946 804 l 531 189 q 438 60 458 82 q 303 -12 372 -12 q 213 35 249 -12 q 178 140 178 83 q 185 172 178 160 q 203 178 192 178 l 210 178 q 226 138 217 174 q 249 75 235 94 q 301 43 268 43 q 385 90 342 43 q 446 172 400 106 l 860 769 q 933 860 889 814 q 1018 925 992 925 q 1056 858 1056 925 l 1040 758 l 943 150 l 940 119 q 951 86 940 92 q 1201 492 976 103 l 1458 946 z "},"O":{"ha":867,"x_min":156,"x_max":1044,"o":"m 553 794 q 329 535 419 672 q 215 219 215 360 q 259 85 215 149 q 374 21 303 21 q 644 151 493 21 q 888 442 785 272 q 992 731 992 613 q 951 836 992 794 q 844 878 910 878 q 657 792 765 878 q 508 640 576 726 q 419 524 478 596 l 400 543 q 581 799 442 676 q 858 929 728 929 q 992 878 940 929 q 1044 743 1044 828 q 940 423 1044 607 q 683 107 835 239 q 386 -33 522 -33 q 224 38 292 -33 q 156 207 156 108 q 278 568 156 360 q 543 818 401 776 l 553 794 z "},"P":{"ha":975,"x_min":138,"x_max":1342,"o":"m 356 -35 q 196 46 260 -35 q 138 219 138 121 q 299 579 138 406 q 659 832 442 735 q 1057 929 876 929 q 1243 889 1167 929 q 1342 740 1342 839 q 1193 489 1342 607 q 919 363 1063 385 q 882 360 908 361 q 817 358 856 358 l 782 358 q 356 -35 539 -35 m 1289 740 q 1207 851 1289 814 q 1061 878 1146 878 q 819 843 939 878 q 579 738 699 808 q 233 376 336 596 q 197 217 197 300 q 238 83 197 140 q 357 19 285 19 q 540 125 443 19 q 675 306 592 181 q 714 375 692 328 q 628 471 653 411 l 647 471 q 740 422 703 431 l 743 418 l 896 650 q 1101 843 1013 810 l 1110 836 l 1110 822 q 951 630 1049 765 q 815 411 853 494 l 836 411 q 1121 508 969 411 q 1289 740 1289 615 z "},"Q":{"ha":1089,"x_min":307,"x_max":1268,"o":"m 669 -158 q 803 -99 724 -158 q 893 -37 882 -40 l 899 -42 q 803 -158 874 -103 q 671 -214 733 -214 q 556 -153 599 -214 l 499 -43 q 359 48 411 -24 q 307 214 307 119 q 436 543 307 367 q 711 769 565 719 l 722 758 q 485 519 583 657 q 365 213 365 354 q 401 89 365 142 q 504 24 438 36 q 515 72 508 46 q 528 114 521 99 q 568 196 544 165 l 589 196 l 597 189 q 567 32 567 82 l 567 14 q 936 246 758 60 q 1179 617 1093 410 q 1210 747 1210 696 q 1171 843 1210 804 q 1076 882 1132 882 q 861 790 978 882 q 693 621 781 729 q 626 543 669 592 q 615 529 622 538 l 608 532 l 601 535 q 785 792 601 640 q 1079 935 961 935 q 1213 877 1157 935 q 1268 743 1268 819 q 1153 415 1268 600 q 879 107 1046 243 q 567 -50 713 -29 q 669 -158 600 -158 z "},"R":{"ha":1228,"x_min":131,"x_max":1369,"o":"m 1129 49 q 1224 93 1167 49 q 1313 157 1293 146 l 1322 143 q 1244 57 1322 115 q 1133 -6 1167 -1 l 1125 -11 q 1040 17 1079 -11 q 965 101 1000 46 l 878 253 q 776 371 804 371 l 754 367 l 644 203 q 501 35 568 93 q 335 -43 413 -43 q 188 10 246 -43 q 131 150 131 63 q 304 546 131 356 q 697 823 458 715 q 1131 931 936 931 q 1369 786 1369 931 q 1276 594 1369 682 q 1069 465 1204 526 l 863 376 l 976 194 q 1129 49 1076 49 m 1313 772 q 1250 867 1313 839 q 1129 882 1208 882 q 732 779 958 882 q 354 521 506 676 q 183 165 183 346 q 223 56 183 106 q 319 7 263 7 q 464 74 386 7 q 585 219 518 124 l 678 363 q 519 447 519 379 q 622 522 519 522 q 757 476 679 522 l 903 674 q 1074 847 988 778 q 1099 826 1093 850 q 955 647 1097 819 q 804 447 813 474 l 821 428 q 968 468 894 440 q 1121 543 1042 496 q 1313 772 1313 654 m 572 460 l 572 449 q 674 415 596 415 l 711 417 l 725 433 q 615 474 656 474 q 572 460 582 474 z "},"S":{"ha":854,"x_min":146,"x_max":1078,"o":"m 836 715 q 1024 868 1024 824 q 965 899 1024 899 q 679 822 863 899 q 471 651 471 736 q 567 557 471 599 l 744 481 q 840 331 840 426 q 707 82 840 197 q 442 -25 579 -25 q 239 56 332 -25 q 146 247 146 138 q 167 386 146 317 q 249 479 194 479 l 264 475 l 265 461 q 200 276 200 376 q 274 113 200 181 q 443 44 349 44 q 665 130 551 44 q 778 325 778 215 q 683 439 778 392 l 508 515 q 414 644 414 565 q 625 864 414 764 q 943 950 806 950 q 1026 935 992 950 q 1078 876 1078 915 q 989 760 1078 826 q 921 716 953 733 q 851 686 889 699 l 836 715 z "},"T":{"ha":874,"x_min":189,"x_max":1389,"o":"m 1389 897 q 1179 789 1389 789 q 1138 791 1161 789 q 1071 804 1114 793 q 917 626 967 713 l 725 299 q 589 92 638 150 q 388 -28 489 -28 q 231 82 285 -28 q 189 285 189 168 q 235 367 189 367 l 243 365 l 242 319 q 248 226 242 268 q 268 142 254 185 q 385 31 306 31 q 626 256 490 31 l 864 651 q 1017 828 904 719 l 836 878 q 651 903 733 903 q 454 850 535 903 q 358 679 358 789 q 408 536 358 611 l 390 531 q 329 581 353 531 q 306 669 306 631 q 419 889 306 806 q 665 960 519 960 q 773 950 715 960 q 896 919 831 940 l 982 889 q 1064 867 1042 869 q 1289 964 1207 964 q 1357 947 1325 964 q 1389 897 1389 931 m 1340 890 q 1297 914 1340 914 q 1128 847 1224 914 q 1194 839 1160 839 q 1236 840 1222 839 q 1281 849 1250 842 q 1340 890 1340 861 z "},"U":{"ha":1121,"x_min":353,"x_max":1388,"o":"m 1388 918 l 1388 907 l 1110 557 q 944 160 944 325 q 1008 40 944 40 q 1197 164 1078 40 l 1217 140 q 993 -12 1117 -12 q 914 42 947 -12 q 888 139 888 90 q 944 365 888 238 l 849 256 q 682 101 781 176 q 488 6 558 6 q 397 65 440 6 q 353 172 353 125 q 478 469 353 296 q 711 740 544 561 q 836 904 836 874 q 814 925 836 925 q 689 864 776 925 q 623 818 651 840 q 571 774 594 796 l 543 781 q 665 905 564 839 q 832 971 767 971 q 851 969 842 971 q 878 955 860 967 q 896 919 896 943 q 771 715 896 861 l 539 443 q 414 169 414 278 q 438 105 414 133 q 497 76 463 76 q 814 297 606 76 q 1158 711 925 415 q 1361 942 1333 936 l 1388 918 z "},"V":{"ha":690,"x_min":242,"x_max":1022,"o":"m 468 896 q 539 799 539 896 q 490 592 539 714 l 321 160 q 296 63 296 72 q 310 31 296 43 l 321 31 q 657 360 471 138 q 918 750 843 582 q 944 922 944 811 q 985 954 944 954 q 1022 897 1022 954 q 764 404 1022 761 q 549 157 683 293 q 303 -19 372 -19 q 260 4 279 -19 q 242 57 242 28 q 279 207 242 107 l 467 700 q 478 741 471 713 q 485 804 485 769 q 460 840 485 840 q 265 663 383 840 q 251 699 251 672 q 335 822 251 747 q 468 896 419 896 z "},"W":{"ha":1211,"x_min":236,"x_max":1531,"o":"m 1531 869 q 1418 589 1531 754 q 818 -21 996 -21 q 749 21 782 -21 q 719 103 719 63 q 817 383 719 211 q 999 660 868 475 q 1096 831 1096 801 q 1083 849 1096 846 q 808 519 1050 849 l 511 104 q 439 15 465 40 q 339 -29 392 -29 q 269 -6 306 -29 q 236 101 236 43 q 333 372 236 211 q 514 635 368 431 q 611 818 611 774 q 586 839 611 839 q 406 688 540 839 q 379 710 381 696 q 470 824 379 754 q 608 894 561 894 q 649 875 629 894 q 668 833 668 858 q 571 611 668 760 l 389 343 q 292 96 292 186 q 305 51 292 74 q 340 28 318 29 q 554 254 394 28 l 847 675 q 1106 901 1019 901 q 1136 885 1119 901 q 1153 853 1153 869 q 1056 647 1153 803 l 874 363 q 776 107 776 193 q 792 61 776 82 q 829 40 807 40 q 1061 217 897 40 q 1336 574 1210 381 q 1468 854 1468 779 q 1459 892 1468 868 q 1450 932 1450 917 q 1471 956 1450 944 l 1485 956 q 1521 924 1507 956 q 1531 869 1531 894 z "},"X":{"ha":1293,"x_min":94,"x_max":1663,"o":"m 1663 807 q 1544 588 1663 711 q 1332 465 1426 465 q 1288 488 1308 465 q 1269 535 1269 510 q 1315 642 1269 581 q 1408 704 1361 704 l 1415 703 q 1435 672 1431 692 q 1326 547 1326 606 q 1351 529 1326 529 q 1520 638 1426 529 q 1614 824 1614 746 q 1503 899 1614 899 q 1207 789 1368 899 q 949 532 1051 683 q 838 235 838 371 q 885 81 838 140 q 1025 21 932 21 q 1369 185 1167 21 l 1392 185 q 1242 28 1375 103 q 1025 -37 1119 -37 q 840 44 908 -37 q 772 243 772 126 l 774 275 q 582 71 694 157 q 328 -32 447 -32 q 161 39 228 -32 q 94 211 94 110 l 97 274 l 104 282 l 126 282 l 153 260 l 153 228 q 192 92 153 149 q 313 28 236 28 q 586 160 433 28 q 824 452 722 278 q 926 746 926 626 q 888 844 926 804 q 792 883 850 883 q 546 750 683 883 q 354 526 488 693 l 335 546 q 517 809 368 679 q 800 939 665 939 q 936 881 883 939 q 982 736 982 826 q 975 669 982 701 q 1081 767 1022 721 q 1204 851 1140 814 q 1478 938 1353 938 q 1599 907 1546 938 q 1663 807 1663 871 z "},"Y":{"ha":844,"x_min":310,"x_max":1278,"o":"m 367 146 q 476 25 367 25 q 701 210 567 25 l 904 489 l 1006 614 q 971 592 993 611 q 651 338 815 443 l 632 338 l 613 336 q 539 367 569 336 q 511 444 511 399 q 585 636 511 522 q 719 821 625 701 q 793 929 790 911 l 782 938 l 768 944 q 629 881 728 944 q 501 782 546 826 l 490 786 l 486 797 q 610 927 486 851 q 794 1003 733 1003 q 857 944 857 1003 q 782 800 857 900 l 640 624 q 565 458 565 521 q 582 417 565 439 q 621 393 599 394 q 844 532 688 393 q 1110 792 931 608 q 1257 931 1243 929 q 1263 928 1260 929 q 1271 921 1267 926 q 1278 903 1275 915 q 1244 843 1278 888 l 1199 785 l 753 176 q 460 -43 592 -43 q 353 7 399 -43 q 310 122 310 58 q 328 234 310 161 q 372 307 346 307 l 388 306 l 396 293 q 381 218 396 267 q 367 146 367 169 z "},"Z":{"ha":1010,"x_min":60,"x_max":1156,"o":"m 942 243 l 1100 306 l 1100 272 q 940 197 1044 253 q 908 150 928 188 q 594 -237 821 -36 q 167 -460 343 -460 q 91 -432 122 -460 q 60 -358 60 -404 q 211 -129 60 -247 q 526 57 319 -43 l 803 183 q 879 238 860 211 q 899 322 899 264 q 867 417 899 372 l 629 243 q 375 128 465 128 q 311 147 339 128 q 283 201 283 167 q 465 418 283 313 q 751 514 631 514 q 800 510 775 514 q 858 494 825 506 q 925 561 890 521 q 1004 664 960 601 q 1100 856 1100 797 q 1069 912 1100 890 q 1000 933 1039 933 q 475 625 788 933 q 453 614 464 617 q 436 626 444 614 q 691 861 482 732 q 1013 990 900 990 q 1156 867 1156 990 q 1067 650 1156 772 q 908 467 1028 594 q 956 332 956 388 q 953 291 956 310 q 942 243 950 272 m 335 210 l 350 189 l 368 188 q 472 211 413 188 q 604 283 532 235 q 815 451 665 325 l 756 456 q 444 336 599 456 q 378 281 393 297 q 335 210 339 244 m 115 -351 q 171 -408 115 -408 q 546 -190 290 -408 q 843 154 801 29 q 422 -58 538 8 q 115 -351 115 -237 z "},"[":{"ha":406,"x_min":308,"x_max":546,"o":"m 546 957 l 379 957 l 379 -190 l 546 -190 l 546 -221 l 308 -221 l 308 989 l 546 989 l 546 957 z "},"\\":{"ha":910,"x_min":329,"x_max":875,"o":"m 839 -44 l 329 989 l 363 989 l 875 -44 l 839 -44 z "},"]":{"ha":406,"x_min":160,"x_max":399,"o":"m 399 989 l 399 -221 l 160 -221 l 160 -190 l 328 -190 l 328 957 l 160 957 l 160 989 l 399 989 z "},"^":{"ha":336,"x_min":92,"x_max":392,"o":"m 322 600 l 392 425 l 354 425 l 272 540 l 131 425 l 92 425 l 253 600 l 322 600 z "},"_":{"ha":600,"x_min":35,"x_max":799,"o":"m 35 -194 l 35 -160 l 799 -160 l 799 -194 l 35 -194 z "},"`":{"ha":406,"x_min":335,"x_max":551,"o":"m 510 425 l 410 492 q 335 571 335 546 q 374 606 335 606 q 467 529 399 606 l 551 425 l 510 425 z "},"a":{"ha":525,"x_min":43,"x_max":613,"o":"m 507 317 q 349 86 349 154 q 393 39 349 39 q 500 88 435 39 l 599 160 q 613 143 610 154 q 519 50 613 115 q 378 -15 426 -15 q 300 108 300 -15 q 106 -21 171 -21 q 61 6 82 -21 q 50 26 57 11 q 43 57 43 42 q 143 242 43 142 q 329 342 243 342 q 406 290 383 342 q 448 326 419 303 q 479 353 476 350 l 507 317 m 97 63 q 115 36 97 38 q 372 251 186 36 q 358 281 372 268 q 325 294 344 294 q 181 210 265 294 q 97 63 97 125 z "},"b":{"ha":490,"x_min":69,"x_max":647,"o":"m 414 349 q 444 332 432 349 q 460 292 457 315 q 404 164 460 250 l 418 164 q 519 188 471 164 l 613 238 q 628 217 625 231 q 569 168 628 201 q 531 149 551 158 q 492 132 511 139 q 374 113 474 125 l 297 49 q 167 -12 221 -12 q 97 15 126 -12 q 69 85 69 46 q 231 454 69 242 q 528 740 371 642 q 613 771 578 771 q 647 732 647 771 q 510 526 647 679 q 256 267 496 510 q 118 97 118 126 q 160 38 118 38 q 249 74 194 38 q 321 142 304 110 q 307 185 311 168 q 301 215 303 203 q 335 303 301 258 q 414 349 369 349 m 601 722 l 594 733 q 342 520 490 694 q 161 231 194 346 l 522 604 q 601 722 567 651 m 351 201 l 363 189 q 413 296 404 251 l 404 306 q 351 201 364 306 z "},"c":{"ha":403,"x_min":65,"x_max":492,"o":"m 314 226 q 332 256 314 239 q 353 299 350 274 q 331 314 347 313 q 197 234 272 314 q 121 94 121 154 q 154 47 121 67 q 214 32 181 32 q 354 75 281 32 q 401 106 369 83 q 476 161 432 128 q 492 146 490 160 q 374 38 492 97 q 207 -18 263 -18 q 111 11 153 -18 q 65 97 65 44 q 158 269 65 183 q 338 356 250 356 q 408 306 408 356 q 339 208 408 260 l 314 226 z "},"d":{"ha":531,"x_min":58,"x_max":833,"o":"m 403 49 q 507 94 444 49 l 597 169 q 613 150 611 165 q 518 55 613 118 q 386 -8 424 -8 q 297 86 332 -8 l 215 28 q 121 -4 163 -4 q 76 19 93 -4 q 58 71 58 43 q 141 251 58 160 q 311 342 224 342 q 360 329 331 342 l 451 467 q 554 601 508 553 q 667 704 600 650 q 793 776 756 776 q 819 764 806 776 q 833 736 833 751 q 346 131 833 621 q 403 49 346 49 m 375 228 q 481 331 424 271 q 604 468 539 392 q 788 728 758 647 q 543 517 683 690 q 372 232 418 358 l 375 228 m 335 278 q 308 304 335 304 q 181 214 250 304 q 113 65 118 132 q 133 49 121 49 q 215 87 156 49 q 290 144 275 125 l 335 278 z "},"e":{"ha":361,"x_min":63,"x_max":450,"o":"m 185 28 q 318 81 240 28 l 436 169 q 450 144 450 160 q 331 35 404 86 q 185 -26 246 -26 q 97 10 132 -26 q 63 100 63 47 q 146 269 63 182 q 314 357 229 357 q 349 344 333 357 q 365 311 365 331 q 122 67 365 217 q 185 28 139 28 m 117 119 q 229 201 208 181 q 313 311 290 256 l 299 317 q 190 239 268 317 q 117 119 144 193 z "},"f":{"ha":389,"x_min":-208,"x_max":690,"o":"m 226 14 q 476 164 326 46 q 490 142 489 160 q 393 51 490 118 q 267 -18 308 -4 q 232 -31 256 -18 l 207 -143 q 82 -386 169 -267 q -131 -529 -28 -529 q -185 -506 -161 -529 q -208 -450 -208 -482 q 17 50 -208 -312 q 346 531 171 300 q 657 793 546 793 q 690 746 690 793 q 165 117 690 588 q 226 14 210 94 m 165 188 q 435 442 301 299 q 653 738 589 607 l 653 747 l 649 749 q 165 188 538 749 m 158 13 q 178 18 171 13 l 165 61 q 131 83 154 83 q 111 64 113 83 q 126 29 111 46 q 158 13 142 13 m -157 -449 q -125 -487 -157 -487 q 78 -318 -40 -487 q 188 -64 188 -156 q 171 -36 188 -53 q 135 -28 146 -32 q 108 -16 124 -25 q 67 28 93 -7 q -15 -111 38 -21 q -69 -206 -49 -168 q -157 -449 -157 -371 z "},"g":{"ha":513,"x_min":-154,"x_max":599,"o":"m 479 347 l 517 332 q 303 -17 433 236 q 444 61 344 -12 q 589 160 563 146 l 599 149 l 599 138 q 369 -37 503 33 q 276 -87 338 -50 q 207 -203 265 -99 q 82 -383 158 -293 q -85 -503 -18 -503 q -133 -481 -111 -503 q -154 -432 -154 -460 q -35 -207 -154 -306 q 196 -76 42 -143 q 271 24 221 -67 l 333 143 l 228 50 q 111 -11 154 -11 q 67 14 88 -11 q 54 40 60 25 q 49 67 49 54 q 151 250 49 157 q 251 320 203 297 q 344 343 299 343 q 408 278 399 343 q 479 347 447 325 m 104 75 q 119 47 104 56 q 379 247 197 64 l 364 282 q 332 299 353 299 q 190 215 276 299 q 104 75 104 131 m -85 -450 q 74 -322 -21 -450 q 185 -132 143 -229 q 32 -214 79 -178 q -82 -347 -28 -258 q -108 -417 -108 -392 q -85 -450 -108 -450 z "},"h":{"ha":500,"x_min":26,"x_max":632,"o":"m 632 754 q 514 569 632 700 l 282 333 q 117 138 147 199 q 254 276 169 204 q 417 367 361 367 q 446 354 433 367 q 461 324 458 342 q 399 194 461 283 q 336 81 336 106 q 376 50 336 50 q 482 97 414 50 l 578 171 l 592 143 q 360 -4 449 -4 q 307 24 331 -4 q 286 82 286 51 q 336 197 286 126 q 379 265 360 232 q 401 310 394 292 l 393 317 q 213 171 329 292 l 50 -12 q 26 31 26 -12 q 79 169 26 68 q 294 549 217 436 q 458 744 382 679 q 601 808 533 808 q 632 754 632 789 m 206 310 q 510 639 385 497 q 567 704 526 663 q 588 754 588 738 q 578 769 588 764 q 363 572 476 735 l 206 310 z "},"i":{"ha":243,"x_min":40,"x_max":347,"o":"m 217 408 q 233 447 217 431 q 271 463 249 463 q 318 431 296 463 q 258 367 301 367 q 217 408 217 367 m 89 74 l 90 67 l 93 61 q 126 44 106 44 q 232 94 163 44 l 328 174 q 347 153 344 174 l 346 144 q 239 49 269 69 q 171 7 201 21 q 113 -7 140 -7 q 63 15 86 -7 q 40 65 40 40 q 102 222 40 114 q 204 344 164 329 q 232 325 217 344 q 153 201 224 293 q 89 74 89 118 z "},"j":{"ha":264,"x_min":-396,"x_max":361,"o":"m 290 397 q 275 368 290 379 q 243 356 263 356 q 211 367 226 356 q 197 397 200 379 q 243 435 197 435 q 275 424 260 435 q 290 397 288 417 m 214 301 q 39 -17 124 108 l 39 -24 q 344 160 229 67 l 350 160 q 361 144 360 154 q 329 103 361 122 q 245 35 314 85 q 154 -14 176 -14 q 14 -81 110 -31 q -83 -215 -21 -106 q -192 -392 -156 -346 q -333 -479 -261 -479 q -376 -460 -358 -479 q -396 -415 -396 -443 q -297 -240 -396 -343 q -133 -106 -221 -161 l -65 -68 q -10 -15 -28 -44 l 85 171 q 185 329 160 317 q 214 301 210 329 m -350 -406 q -336 -431 -350 -425 q -86 -131 -224 -397 q -208 -211 -181 -189 q -305 -318 -261 -253 q -350 -406 -349 -383 z "},"k":{"ha":514,"x_min":8,"x_max":625,"o":"m 538 315 q 438 188 538 257 q 281 113 361 136 q 386 40 350 40 q 500 89 439 40 q 601 164 582 154 q 611 146 610 160 q 568 94 611 133 l 485 22 q 383 -14 436 -14 q 289 32 335 -14 q 213 103 235 93 l 172 101 q 31 -18 136 114 q 8 4 10 -18 q 44 92 8 36 q 158 296 49 118 l 294 513 q 421 676 347 600 q 585 781 519 781 q 613 765 601 781 q 625 733 625 753 q 511 551 625 679 l 282 322 q 113 121 149 188 q 189 189 147 156 q 290 264 236 226 q 483 360 426 360 q 518 347 500 360 q 538 315 536 333 m 508 699 q 336 493 417 619 q 299 436 329 478 q 267 387 293 422 q 235 328 242 351 l 397 492 q 567 692 547 647 l 586 725 l 582 740 l 576 742 l 572 743 q 563 741 567 742 q 544 733 558 740 q 508 699 529 725 m 215 154 l 222 150 l 250 138 q 380 201 286 138 q 474 297 474 264 l 471 306 l 460 311 q 215 154 397 311 z "},"l":{"ha":289,"x_min":67,"x_max":624,"o":"m 379 143 q 282 50 379 111 q 147 -11 185 -11 q 89 23 111 -11 q 67 94 67 57 q 159 344 67 182 q 368 624 251 507 q 586 754 499 754 q 624 711 624 754 q 196 207 624 601 l 146 161 q 125 133 132 147 q 118 101 118 118 q 160 44 118 44 q 361 165 229 44 q 379 143 378 165 m 581 701 l 578 708 q 328 513 476 699 q 153 228 204 358 l 383 450 q 581 701 581 651 z "},"m":{"ha":649,"x_min":4,"x_max":750,"o":"m 231 328 l 181 233 q 339 350 272 350 q 369 333 356 350 q 385 297 382 317 q 367 222 385 267 q 553 350 475 350 q 587 333 574 350 q 603 294 600 317 q 547 181 603 256 q 490 82 490 107 q 535 49 490 49 q 640 90 578 49 q 671 113 653 99 q 732 164 689 128 q 750 147 747 160 q 657 52 750 114 q 525 -10 564 -10 q 463 15 493 -10 q 432 74 432 40 q 492 192 432 115 q 551 292 551 268 l 542 300 q 372 176 471 283 l 231 7 l 194 19 q 265 140 194 33 q 335 278 335 246 q 325 297 335 289 q 148 142 258 276 q 22 6 38 7 q 4 24 6 11 q 101 201 4 51 q 219 351 197 350 l 231 328 z "},"n":{"ha":447,"x_min":1,"x_max":544,"o":"m 226 363 l 238 349 q 190 243 229 303 q 349 349 285 349 q 401 300 401 349 q 344 180 401 260 q 286 75 286 100 q 296 50 286 58 l 321 39 q 433 83 382 47 l 528 157 l 544 132 q 314 -17 407 -17 q 259 8 285 -17 q 233 60 233 33 q 282 182 233 111 q 350 297 340 263 l 338 306 q 179 175 297 306 l 33 -1 l 1 17 q 97 191 1 40 q 219 363 193 342 l 226 363 z "},"o":{"ha":439,"x_min":57,"x_max":582,"o":"m 421 317 q 369 164 421 265 q 574 239 440 164 l 582 210 q 474 139 538 164 q 331 114 411 114 q 146 -19 226 -19 q 83 14 113 -19 q 57 85 57 49 q 114 219 57 132 q 224 314 176 314 q 243 308 233 314 q 358 393 299 393 q 403 369 385 393 q 421 317 421 344 m 151 33 q 278 129 199 33 q 241 181 251 147 q 231 271 231 214 q 149 192 193 261 q 106 85 106 124 q 118 51 106 67 q 151 33 131 35 m 269 225 q 280 189 269 206 q 310 169 290 172 q 372 314 372 264 q 342 350 372 350 q 289 303 314 350 q 269 225 269 260 z "},"p":{"ha":399,"x_min":-300,"x_max":413,"o":"m 222 278 q 358 343 311 343 q 396 324 381 343 q 413 283 413 307 q 331 98 413 204 q 172 -8 250 -8 q 114 39 151 -8 l -40 -274 q -246 -507 -169 -507 q -285 -481 -271 -507 q -300 -428 -300 -454 q -147 -99 -300 -293 q 107 183 -125 -71 q 224 415 168 251 l 232 443 q 257 457 236 457 q 281 446 269 457 q 257 363 281 422 l 222 278 m 142 83 q 154 53 142 71 q 183 35 167 35 q 292 131 228 35 q 356 276 356 228 q 335 297 356 297 q 209 221 276 297 q 142 83 142 144 m -260 -425 q -229 -465 -260 -465 q -101 -308 -164 -418 q -4 -100 -67 -247 q 83 90 51 35 l 85 101 q -117 -139 26 81 q -260 -425 -260 -358 z "},"q":{"ha":475,"x_min":17,"x_max":590,"o":"m 501 349 q 351 136 456 293 q 581 228 414 149 l 590 207 q 468 126 531 156 q 329 83 421 107 l 332 65 l 336 50 q 260 -274 336 -71 q 75 -507 172 -507 q 34 -481 51 -507 q 17 -431 17 -456 q 106 -182 17 -350 q 249 54 142 -112 q 124 -19 164 -19 q 78 10 97 -19 q 60 68 60 42 q 156 250 60 156 q 339 344 251 344 q 399 315 371 344 l 411 308 l 440 343 q 478 367 460 363 l 501 349 m 336 308 q 193 213 278 308 q 108 56 108 118 q 124 35 108 44 q 269 125 188 46 q 382 260 333 186 q 336 308 371 308 m 54 -432 q 68 -465 54 -457 q 228 -240 146 -428 q 304 35 304 -64 l 294 46 q 151 -187 244 -14 q 54 -432 54 -375 z "},"r":{"ha":424,"x_min":29,"x_max":511,"o":"m 403 358 l 421 338 q 315 219 367 286 q 249 83 249 132 q 294 46 249 46 q 401 93 340 46 q 500 164 482 157 l 511 140 q 279 -7 364 -7 q 226 23 250 -7 q 201 83 201 53 q 226 175 201 133 q 275 235 240 199 q 310 285 303 265 q 272 276 289 278 q 224 275 254 275 q 43 89 119 139 l 29 115 l 122 215 q 183 329 179 285 q 188 396 183 368 q 199 447 192 424 q 272 521 219 521 q 301 503 289 521 q 314 469 314 486 q 251 315 314 431 q 403 358 299 315 m 214 353 q 250 403 229 361 q 274 468 271 446 l 272 475 l 264 476 q 214 353 226 447 z "},"s":{"ha":367,"x_min":57,"x_max":465,"o":"m 333 139 q 399 159 358 139 q 454 182 440 179 l 465 165 q 393 110 465 133 q 317 82 321 86 q 258 15 278 32 q 178 -18 222 -18 q 92 24 126 -18 q 57 121 57 67 q 106 226 57 204 l 118 215 l 217 317 l 211 363 q 249 476 211 418 q 344 540 292 540 q 378 525 364 540 q 393 492 390 514 q 335 379 393 453 l 278 307 q 299 231 278 294 q 325 142 321 168 l 333 139 m 258 371 l 267 371 l 274 379 q 319 429 292 388 q 350 489 347 471 l 342 496 q 283 449 310 496 q 258 371 263 408 m 174 149 q 246 122 200 122 l 258 124 l 272 124 q 271 169 272 150 q 265 200 269 189 q 236 268 261 219 l 149 179 q 174 149 153 160 m 124 140 l 117 93 q 140 44 117 67 q 192 25 164 25 q 254 71 225 25 l 253 76 q 181 93 208 81 q 124 140 154 106 z "},"t":{"ha":315,"x_min":81,"x_max":738,"o":"m 738 500 q 731 482 738 489 l 694 483 l 658 483 q 559 478 614 481 q 465 476 504 476 l 229 239 l 167 183 q 132 110 132 146 q 188 42 132 42 q 290 90 225 42 q 353 138 332 122 q 390 160 375 153 l 399 138 q 175 -14 260 -14 q 103 29 129 -14 q 86 68 92 49 q 81 115 81 88 q 142 294 81 197 q 236 460 221 422 l 92 449 l 90 457 q 122 488 90 482 l 174 489 q 281 514 240 489 q 358 588 289 518 q 443 653 389 618 q 540 692 506 692 q 557 676 549 692 q 565 650 565 661 q 544 583 565 617 l 504 526 l 507 519 l 589 522 l 672 526 q 738 500 738 526 m 349 507 q 460 539 422 507 q 519 640 490 564 l 507 646 q 422 588 486 646 q 349 507 357 531 m 164 246 q 279 346 183 247 q 392 469 357 425 l 331 467 q 238 369 300 461 q 164 246 199 313 z "},"u":{"ha":457,"x_min":47,"x_max":549,"o":"m 114 49 q 258 176 151 49 q 397 346 386 336 l 433 325 l 349 199 q 293 61 300 117 q 321 43 301 44 q 435 86 371 43 l 533 161 l 549 138 q 321 -12 411 -12 q 240 96 240 -12 q 100 -3 149 -3 q 64 16 78 -3 q 47 60 50 35 q 101 213 47 124 q 214 339 156 301 l 243 321 q 99 74 99 153 q 114 49 99 49 z "},"v":{"ha":394,"x_min":57,"x_max":449,"o":"m 133 -21 q 80 9 103 -21 q 57 72 57 39 q 214 343 57 186 l 246 319 l 246 313 q 160 193 207 265 q 104 64 104 101 q 135 36 104 36 q 288 172 181 36 q 408 358 381 290 q 432 367 421 367 q 449 354 442 367 q 317 133 421 268 q 133 -21 200 -21 z "},"w":{"ha":579,"x_min":39,"x_max":624,"o":"m 318 42 q 474 179 363 42 q 603 365 569 296 l 624 365 q 506 135 624 285 q 310 -15 388 -15 q 246 94 246 -15 l 236 92 q 90 -10 142 -10 q 53 19 68 -10 q 39 76 39 47 q 107 230 39 124 q 218 336 175 336 q 239 315 232 336 q 90 68 90 126 q 99 50 90 58 q 251 176 168 71 q 382 335 354 311 l 418 315 l 418 308 l 343 196 q 294 78 294 118 q 318 42 294 42 z "},"x":{"ha":494,"x_min":-7,"x_max":568,"o":"m 536 340 l 546 338 q 561 310 560 328 l 401 219 q 300 85 300 151 q 313 46 300 64 q 350 28 326 28 q 457 76 392 28 q 556 150 538 142 l 568 125 q 332 -25 432 -25 q 250 106 250 -25 q 131 17 218 90 q 19 -90 53 -51 q -7 -56 -6 -69 q 186 124 -7 -28 l 260 179 q 288 269 288 207 q 188 214 240 257 l 101 136 l 83 136 l 75 149 q 182 263 99 192 q 308 339 274 339 q 346 268 346 339 q 340 238 346 247 l 344 232 q 536 340 490 340 z "},"y":{"ha":401,"x_min":-157,"x_max":457,"o":"m 436 350 l 457 328 q 325 78 417 263 l 390 118 l 400 94 q 357 43 390 68 l 300 4 q 203 -153 271 -17 q 72 -381 124 -314 q -104 -496 -14 -496 q -141 -478 -125 -496 q -157 -437 -157 -460 q -17 -208 -157 -349 q 197 -17 19 -169 q 256 63 226 8 l 304 150 l 214 56 q 110 -7 149 -7 q 72 18 89 -7 q 57 65 60 40 q 118 229 57 117 q 225 342 179 342 q 250 328 238 342 l 250 321 q 114 78 114 144 q 128 60 114 61 q 281 185 164 60 l 425 350 l 436 350 m -112 -442 q -94 -461 -112 -460 q 65 -301 -36 -461 l 192 -82 l 186 -78 l 8 -249 q -112 -442 -112 -372 z "},"z":{"ha":474,"x_min":-131,"x_max":475,"o":"m 360 36 l 424 71 q 447 53 446 71 l 446 39 l 401 8 q 364 -31 374 -11 q 201 -333 364 -156 q -87 -510 38 -510 q -131 -457 -131 -510 q 50 -203 -131 -365 q 146 -124 81 -175 q 314 6 211 -72 q 256 60 290 60 q 90 -4 171 13 q 75 19 76 3 q 139 72 75 47 l 229 101 q 374 190 307 135 q 424 260 424 232 q 413 290 424 278 q 386 304 403 303 q 229 240 318 304 q 93 142 111 150 l 78 160 q 220 277 111 211 q 388 343 329 343 q 448 322 421 343 q 475 267 475 300 q 414 167 475 219 l 314 94 q 360 36 335 74 m -90 -453 l -82 -471 q 32 -430 -29 -471 q 165 -310 93 -389 q 317 -50 300 -162 q 85 -227 261 -56 q -90 -453 -90 -399 z "},"{":{"ha":638,"x_min":126,"x_max":657,"o":"m 657 958 q 468 894 531 958 q 419 733 419 843 l 422 665 l 425 603 q 419 519 425 551 q 397 460 414 488 q 315 393 372 417 l 185 347 q 363 271 308 322 q 417 142 408 228 l 419 -56 q 656 -268 419 -268 l 656 -297 q 533 -285 585 -297 q 444 -251 481 -272 q 369 -136 386 -218 q 361 81 361 -87 q 308 263 361 211 q 126 328 264 303 l 126 364 q 308 428 265 389 q 360 614 360 476 q 370 828 360 760 q 435 942 381 897 q 629 989 499 989 l 657 989 l 657 958 z "},"|":{"ha":210,"x_min":161,"x_max":188,"o":"m 161 -222 l 161 989 l 188 989 l 188 -222 l 161 -222 z "},"}":{"ha":638,"x_min":128,"x_max":657,"o":"m 424 618 q 475 431 424 481 q 657 364 517 389 l 657 326 q 481 263 532 310 q 428 136 439 222 l 425 -58 q 340 -247 425 -192 q 128 -293 271 -293 l 128 -269 q 230 -256 188 -269 q 303 -217 272 -243 q 358 -101 349 -182 q 363 81 363 -72 q 419 269 363 211 q 601 346 467 319 q 428 417 476 375 q 368 538 381 460 q 364 731 364 574 q 310 909 364 860 q 128 958 256 958 l 128 989 q 335 949 271 989 q 413 826 392 914 q 424 618 424 768 z "},"~":{"ha":397,"x_min":258,"x_max":581,"o":"m 581 542 q 483 424 551 424 q 410 449 456 424 q 344 475 365 475 q 289 424 311 475 l 258 424 q 357 538 288 538 q 425 513 382 538 q 489 488 468 488 q 529 504 517 488 l 551 542 l 581 542 z "},"‚":{"ha":381,"x_min":93,"x_max":276,"o":"m 275 114 l 186 38 q 97 -19 119 -17 l 93 -11 l 93 14 q 263 154 183 104 q 276 129 274 143 l 275 114 z "},"ƒ":{"ha":447,"x_min":71,"x_max":647,"o":"m 606 778 q 633 769 619 778 q 647 744 646 760 q 510 528 647 685 q 254 264 461 474 q 117 100 117 126 q 160 42 117 42 q 255 82 188 42 q 322 147 322 122 q 314 183 322 158 l 307 218 q 337 310 307 265 q 411 354 367 354 q 444 338 431 354 q 460 299 457 321 q 351 106 460 222 q 167 -11 242 -11 q 99 21 129 -11 q 71 94 71 56 q 143 322 71 186 q 203 424 171 376 q 279 524 235 471 q 428 676 339 599 q 599 778 546 778 l 606 778 m 600 728 l 593 739 q 340 522 483 693 q 160 233 196 350 q 600 728 586 653 m 351 204 l 361 193 l 396 243 q 413 300 407 265 l 403 310 q 351 204 360 293 z "},"„":{"ha":381,"x_min":100,"x_max":313,"o":"m 204 154 q 229 122 229 129 q 146 -94 229 114 l 138 -112 q 124 -128 136 -119 l 111 -128 l 100 -114 q 142 30 100 -85 q 204 154 185 144 m 313 106 q 263 -35 313 76 q 196 -149 214 -147 l 178 -132 q 220 -8 178 -117 q 272 109 263 101 q 300 122 281 117 l 313 106 z "},"…":{"ha":336,"x_min":314,"x_max":613,"o":"m 382 425 l 314 600 l 351 600 l 433 483 l 574 600 l 613 600 l 451 425 l 382 425 z "},"†":{"ha":617,"x_min":86,"x_max":1039,"o":"m 815 526 l 893 529 l 972 533 q 1039 514 1028 533 l 1039 506 l 1035 490 l 836 490 q 754 468 782 490 l 693 404 l 532 243 l 469 185 q 436 111 436 151 q 492 49 436 49 q 689 168 549 49 l 701 154 l 701 143 q 479 -3 564 -3 q 408 36 431 -3 q 383 117 400 54 l 292 38 q 185 -10 229 -10 q 86 114 86 -10 q 143 294 86 193 l 240 460 l 97 447 l 93 457 q 161 494 93 485 l 250 500 q 382 597 279 500 q 539 693 485 693 q 565 650 565 693 q 540 581 565 618 l 497 519 l 497 514 q 550 506 508 506 q 680 602 583 506 q 835 699 776 699 q 868 658 868 699 q 807 529 868 613 l 815 526 m 524 639 l 513 650 q 351 508 429 614 l 393 507 q 439 515 422 507 q 488 570 456 524 q 524 639 519 617 m 825 642 l 821 650 q 656 514 742 621 l 688 514 q 775 555 731 514 q 825 642 819 596 m 471 254 q 593 358 517 286 q 693 475 679 440 q 615 469 631 475 q 471 254 579 456 m 168 250 q 396 471 303 351 l 364 471 q 315 465 328 471 q 168 250 274 450 m 182 40 q 342 125 240 40 q 399 193 379 157 l 429 274 q 449 314 436 293 q 486 369 461 335 q 521 424 504 396 q 543 465 533 444 l 447 465 l 335 340 l 225 235 l 167 186 q 135 121 135 154 l 139 72 l 156 50 q 182 40 164 43 z "},"‡":{"ha":1286,"x_min":249,"x_max":1354,"o":"m 1354 807 l 1289 722 q 1011 864 1214 864 q 766 790 885 864 q 579 600 647 717 l 1197 600 l 1131 513 l 535 513 q 510 425 518 467 l 1065 425 l 999 338 l 504 338 q 583 143 504 215 q 797 71 663 71 q 1142 208 985 71 l 1108 90 q 765 -17 944 -17 q 496 79 599 -17 q 427 190 449 125 q 406 338 406 254 l 249 338 l 315 425 l 414 425 q 439 513 422 467 l 299 513 l 365 600 l 481 600 q 720 857 564 763 q 1050 951 876 951 q 1234 913 1151 951 q 1354 807 1317 875 z "},"ˆ":{"ha":336,"x_min":449,"x_max":750,"o":"m 679 1218 l 750 1043 l 711 1043 l 631 1158 l 489 1043 l 449 1043 l 611 1218 l 679 1218 z "},"Œ":{"ha":1328,"x_min":156,"x_max":1639,"o":"m 1158 549 q 1019 524 1032 549 q 1182 451 1089 451 q 1276 501 1276 451 q 1226 538 1276 521 q 1191 546 1206 543 q 1158 549 1176 549 m 156 207 q 278 568 156 360 q 543 818 401 776 l 553 794 q 329 535 419 672 q 215 219 215 360 q 262 78 215 136 q 388 21 308 21 q 656 160 500 21 l 656 171 q 746 407 656 304 q 951 560 811 481 q 990 707 951 642 l 992 725 q 984 788 992 763 q 956 835 976 813 q 844 878 913 878 q 658 792 765 878 q 508 640 574 726 q 419 524 478 596 l 400 543 q 581 799 442 676 q 858 929 728 929 q 982 889 933 929 q 1043 778 1031 853 q 1244 912 1122 860 q 1476 964 1365 964 q 1578 947 1529 964 q 1639 878 1639 924 q 1556 758 1639 821 q 1417 701 1478 701 q 1383 729 1388 701 q 1445 755 1417 742 q 1504 786 1474 768 q 1589 875 1589 838 q 1488 915 1589 915 q 1226 844 1357 915 q 1028 660 1094 772 q 1003 586 1003 618 l 1007 574 q 1154 593 1076 593 q 1263 576 1217 593 q 1328 503 1328 553 q 1276 425 1328 454 q 1179 406 1235 406 q 1007 464 1072 406 l 964 506 q 793 374 860 464 q 721 171 721 276 q 778 44 721 88 q 836 15 804 25 q 914 6 868 6 q 1140 65 1025 6 q 1339 193 1182 89 l 1350 179 q 1158 8 1250 65 q 914 -61 1044 -61 q 672 96 749 -61 q 388 -33 515 -33 q 224 38 293 -33 q 156 207 156 110 z "},"‘":{"ha":314,"x_min":397,"x_max":581,"o":"m 581 768 l 575 760 q 397 893 556 760 l 397 906 q 410 933 397 918 q 488 878 444 914 q 581 793 532 842 l 581 768 z "},"’":{"ha":381,"x_min":443,"x_max":626,"o":"m 626 892 l 538 815 q 447 758 468 761 l 443 767 l 443 793 q 613 932 546 889 q 626 908 625 919 l 626 892 z "},"“":{"ha":357,"x_min":381,"x_max":588,"o":"m 576 671 l 564 671 q 542 703 554 676 q 461 917 461 889 q 467 925 465 922 q 485 946 474 935 q 544 822 501 938 q 588 683 588 707 l 576 671 m 511 668 l 492 650 q 429 760 478 650 q 381 899 381 871 l 392 914 q 416 905 410 911 q 467 789 422 899 q 511 668 511 679 z "},"”":{"ha":381,"x_min":433,"x_max":646,"o":"m 538 946 q 563 914 563 921 q 479 697 563 906 l 471 679 q 457 664 469 672 l 444 664 l 433 678 q 476 822 433 707 q 538 946 518 936 m 646 897 q 596 756 646 867 q 529 643 546 644 l 511 660 q 553 784 511 675 q 605 901 596 893 q 633 914 614 908 l 646 897 z "},"•":{"ha":40,"x_min":72,"x_max":150,"o":"m 150 263 q 104 226 150 226 q 82 239 93 226 q 72 265 75 250 q 111 306 72 306 q 150 263 150 306 z "},"–":{"ha":735,"x_min":207,"x_max":785,"o":"m 207 383 l 785 383 l 785 325 l 207 325 l 207 383 z "},"—":{"ha":965,"x_min":260,"x_max":993,"o":"m 260 383 l 993 383 l 993 325 l 260 325 l 260 383 z "},"˜":{"ha":397,"x_min":492,"x_max":815,"o":"m 815 1139 q 718 1022 786 1022 q 644 1047 690 1022 q 579 1072 603 1072 q 524 1021 544 1072 l 492 1021 q 590 1136 521 1136 q 659 1110 617 1136 q 724 1085 701 1085 q 764 1101 751 1085 l 786 1139 l 815 1139 z "},"œ":{"ha":597,"x_min":57,"x_max":689,"o":"m 356 119 q 422 166 390 143 q 468 201 453 189 q 550 311 525 251 l 536 317 q 428 239 506 317 q 356 119 378 189 m 269 225 q 280 189 269 206 q 310 169 290 172 q 372 314 372 264 q 342 350 372 350 q 289 303 314 350 q 269 225 269 260 m 57 85 q 116 223 57 132 q 224 314 175 314 q 243 308 233 314 q 357 393 299 393 q 408 361 390 393 q 417 333 414 351 q 419 299 419 315 q 551 357 486 357 q 588 344 571 357 q 604 313 604 332 q 508 174 604 260 q 360 67 446 119 q 422 28 376 28 q 557 79 476 28 l 675 169 q 689 144 686 161 q 569 33 640 83 q 421 -26 485 -26 q 342 3 374 -26 q 303 82 311 33 q 146 -19 214 -19 q 83 14 113 -19 q 57 85 57 49 m 151 33 q 278 129 199 33 q 241 181 251 147 q 231 271 231 214 q 149 192 193 261 q 106 85 106 124 q 118 51 106 67 q 151 33 131 35 z "},"Ÿ":{"ha":844,"x_min":310,"x_max":1278,"o":"m 367 146 q 476 25 367 25 q 701 210 567 25 l 904 489 l 1006 614 q 971 592 993 611 q 651 338 815 443 l 632 338 l 613 336 q 539 367 569 336 q 511 444 511 399 q 585 636 511 522 q 719 821 625 701 q 793 929 790 911 l 782 938 l 768 944 q 629 881 728 944 q 501 782 546 826 l 490 786 l 486 797 q 610 927 486 851 q 794 1003 733 1003 q 857 944 857 1003 q 782 800 857 900 l 640 624 q 565 458 565 521 q 582 417 565 439 q 621 393 599 394 q 844 532 688 393 q 1110 792 931 608 q 1257 931 1243 929 q 1263 928 1260 929 q 1271 921 1267 926 q 1278 903 1275 915 q 1244 843 1278 888 l 1199 785 l 753 176 q 460 -43 592 -43 q 353 7 399 -43 q 310 122 310 58 q 328 234 310 161 q 372 307 346 307 l 388 306 l 396 293 q 381 218 396 267 q 367 146 367 169 m 1146 1203 q 1168 1190 1157 1203 q 1179 1167 1178 1182 q 1104 1090 1179 1147 l 1004 1022 l 963 1022 l 1047 1128 q 1146 1203 1113 1203 z "}," ":{"ha":744,"x_min":0,"x_max":0,"o":""},"¢":{"ha":304,"x_min":153,"x_max":497,"o":"m 428 521 q 475 469 474 479 l 469 449 l 457 446 l 433 469 q 417 479 425 476 q 404 485 408 482 q 282 274 283 286 q 347 301 317 275 q 393 335 376 326 l 394 328 l 396 322 q 381 292 396 308 q 326 239 350 256 q 256 228 304 228 q 207 160 236 214 l 167 79 q 153 94 154 88 q 185 169 153 115 q 221 242 218 222 l 204 282 q 188 354 188 324 q 254 486 188 433 q 399 529 314 529 q 443 594 408 535 q 489 647 471 644 l 497 640 l 428 521 m 229 332 q 250 282 229 294 l 375 493 l 367 494 q 275 438 321 494 q 229 332 229 382 z "},"£":{"ha":1219,"x_min":194,"x_max":1246,"o":"m 194 56 q 374 146 194 146 q 501 133 424 146 q 577 226 522 150 q 636 325 632 303 l 578 331 q 535 354 536 335 l 543 371 l 613 367 l 631 367 q 672 376 661 367 l 694 413 q 829 610 778 558 q 1039 704 919 704 q 1246 446 1246 704 q 1222 419 1246 419 q 1204 449 1204 419 q 1161 596 1204 536 q 1031 664 1114 664 q 844 558 928 664 q 732 363 814 519 l 903 363 q 876 329 903 347 l 715 326 q 689 306 704 326 l 556 121 l 704 74 q 853 43 808 43 q 957 97 928 43 q 976 217 976 136 q 1001 236 976 236 q 1035 172 1035 236 q 979 54 1035 101 q 851 7 924 7 q 670 46 788 7 q 517 85 553 85 q 301 1 393 1 q 275 2 289 1 q 236 13 261 3 q 194 56 194 25 m 236 50 q 306 33 257 33 q 454 99 372 33 q 354 113 394 113 q 236 50 236 113 z "},"¤":{"ha":744,"x_min":249,"x_max":813,"o":"m 525 300 l 393 300 q 368 182 368 231 q 388 106 368 143 q 444 68 407 68 q 561 133 500 68 l 519 40 q 425 17 472 17 q 336 68 371 17 q 306 169 306 117 q 331 300 306 225 l 249 300 l 285 340 l 346 340 l 363 381 l 286 381 l 322 421 l 383 421 q 536 621 451 544 q 725 710 636 710 q 813 625 796 710 l 763 569 l 764 589 q 715 667 764 667 q 574 592 651 667 q 447 421 508 526 l 633 421 l 597 381 l 426 381 l 408 340 l 561 340 l 525 300 z "},"¨":{"ha":444,"x_min":292,"x_max":596,"o":"m 401 478 q 343 424 401 424 q 311 440 329 424 q 292 472 293 457 q 350 535 292 535 q 384 518 369 535 q 401 478 399 501 m 596 482 q 579 442 596 460 q 540 424 563 424 q 501 439 518 424 q 485 475 485 454 q 542 536 485 536 q 579 519 563 536 q 596 482 596 503 z "},"©":{"ha":369,"x_min":0,"x_max":465,"o":"m 332 138 l 339 131 q 454 175 378 131 l 465 172 l 465 150 q 397 100 443 129 l 350 89 q 314 60 322 81 l 257 7 q 185 -19 219 -19 q 105 15 133 -19 q 76 103 76 50 q 51 90 68 103 q 24 76 35 76 q 0 94 8 76 l 226 311 l 221 358 q 260 473 221 414 q 354 532 300 532 q 390 519 374 532 q 406 486 406 506 q 360 386 406 447 l 283 300 q 332 138 332 192 m 267 364 l 274 363 q 363 479 338 426 l 356 490 q 292 444 321 490 q 267 364 271 404 m 254 118 l 268 119 l 281 119 l 283 140 q 269 207 283 161 q 243 263 257 258 l 153 178 q 191 135 157 153 q 254 118 225 118 m 193 24 q 260 71 247 24 q 184 90 207 78 q 129 139 161 103 q 117 100 117 131 q 140 47 117 71 q 193 24 163 24 z "},"®":{"ha":322,"x_min":24,"x_max":418,"o":"m 374 315 q 356 328 365 328 l 338 328 q 181 179 261 278 l 49 4 q 24 32 24 4 q 109 205 24 51 q 210 367 194 358 l 232 367 l 239 357 q 207 271 231 315 q 369 378 310 378 q 402 361 389 378 q 418 322 415 344 q 400 267 418 296 q 356 238 382 238 q 335 247 340 238 q 374 315 353 269 z "},"´":{"ha":406,"x_min":319,"x_max":538,"o":"m 503 606 q 526 593 514 606 q 538 569 535 582 q 461 493 538 549 l 361 425 l 319 425 l 406 531 q 503 606 471 606 z "},"µ":{"ha":774,"x_min":86,"x_max":897,"o":"m 531 288 q 526 260 531 276 q 511 222 522 244 q 697 349 625 349 q 731 333 717 349 q 747 294 744 317 q 693 181 747 254 q 639 79 639 108 q 676 46 639 46 q 785 93 724 46 q 883 164 876 161 q 897 146 897 160 q 888 129 897 138 q 788 41 867 93 q 669 -11 710 -11 q 608 14 639 -11 q 578 71 578 39 q 638 189 578 114 q 697 293 697 264 l 688 299 q 518 174 618 278 l 378 6 l 342 17 q 404 128 344 33 q 479 282 464 224 l 468 296 q 292 132 408 269 q 169 6 186 7 q 149 24 154 6 l 151 39 q 292 278 292 238 q 279 300 292 292 q 178 225 243 300 q 97 150 114 150 l 86 178 q 128 231 106 206 q 176 282 150 257 q 286 350 249 350 q 320 333 306 350 q 338 293 335 317 q 325 232 338 269 q 481 349 421 349 q 517 329 501 349 q 531 288 528 311 z "},"·":{"ha":364,"x_min":156,"x_max":447,"o":"m 344 0 l 282 -81 l 331 -76 q 410 -102 372 -76 q 447 -169 447 -128 q 399 -262 447 -228 q 293 -292 357 -292 q 156 -262 235 -292 l 174 -228 q 283 -249 232 -249 q 386 -176 386 -249 q 360 -133 386 -150 q 306 -115 335 -115 q 233 -131 274 -115 l 213 -114 l 296 0 l 344 0 z "},"À":{"ha":1246,"x_min":128,"x_max":1558,"o":"m 1300 475 l 1326 461 l 1333 444 l 1328 428 l 1253 425 q 1157 278 1197 354 q 1103 115 1103 178 q 1140 64 1103 64 q 1251 106 1190 64 l 1344 185 q 1360 172 1357 185 q 1267 72 1360 136 q 1133 8 1174 8 q 1075 46 1096 8 q 1054 121 1054 83 q 1096 282 1054 192 q 1181 426 1117 325 l 1017 428 l 931 426 l 768 263 q 574 100 657 154 q 465 46 515 64 q 364 28 414 28 q 213 90 299 28 q 128 215 128 151 q 140 240 128 226 q 167 256 153 254 q 249 135 222 161 q 379 81 301 81 q 625 210 475 81 q 714 293 658 239 q 833 417 769 347 l 746 411 l 744 417 l 743 422 q 810 476 743 464 l 906 485 q 1179 763 1001 603 q 1478 957 1397 957 q 1519 940 1499 957 q 1539 900 1539 922 q 1440 688 1539 838 l 1296 482 l 1300 475 m 989 485 l 1067 482 l 1142 483 l 1217 483 l 1372 689 q 1488 901 1475 832 q 1464 914 1479 914 q 1357 849 1439 914 q 1257 758 1294 799 l 1018 517 l 989 485 m 1517 1022 l 1417 1090 q 1340 1168 1340 1146 q 1381 1203 1340 1203 q 1558 1022 1417 1203 l 1517 1022 z "},"Á":{"ha":1246,"x_min":128,"x_max":1613,"o":"m 1300 475 l 1326 461 l 1333 444 l 1328 428 l 1253 425 q 1157 278 1197 354 q 1103 115 1103 178 q 1140 64 1103 64 q 1251 106 1190 64 l 1344 185 q 1360 172 1357 185 q 1267 72 1360 136 q 1133 8 1174 8 q 1075 46 1096 8 q 1054 121 1054 83 q 1096 282 1054 192 q 1181 426 1117 325 l 1017 428 l 931 426 l 768 263 q 574 100 657 154 q 465 46 515 64 q 364 28 414 28 q 213 90 299 28 q 128 215 128 151 q 140 240 128 226 q 167 256 153 254 q 249 135 222 161 q 379 81 301 81 q 625 210 475 81 q 714 293 658 239 q 833 417 769 347 l 746 411 l 744 417 l 743 422 q 810 476 743 464 l 906 485 q 1179 763 1001 603 q 1478 957 1397 957 q 1519 940 1499 957 q 1539 900 1539 922 q 1440 688 1539 838 l 1296 482 l 1300 475 m 989 485 l 1067 482 l 1142 483 l 1217 483 l 1372 689 q 1488 901 1475 832 q 1464 914 1479 914 q 1357 849 1439 914 q 1257 758 1294 799 l 1018 517 l 989 485 m 1576 1203 q 1600 1193 1590 1203 q 1613 1167 1610 1183 q 1536 1090 1613 1146 l 1436 1022 l 1393 1022 l 1479 1128 q 1576 1203 1546 1203 z "},"Â":{"ha":1246,"x_min":128,"x_max":1624,"o":"m 1300 475 l 1326 461 l 1333 444 l 1328 428 l 1253 425 q 1157 278 1197 354 q 1103 115 1103 178 q 1140 64 1103 64 q 1251 106 1190 64 l 1344 185 q 1360 172 1357 185 q 1267 72 1360 136 q 1133 8 1174 8 q 1075 46 1096 8 q 1054 121 1054 83 q 1096 282 1054 192 q 1181 426 1117 325 l 1017 428 l 931 426 l 768 263 q 574 100 657 154 q 465 46 515 64 q 364 28 414 28 q 213 90 299 28 q 128 215 128 151 q 140 240 128 226 q 167 256 153 254 q 249 135 222 161 q 379 81 301 81 q 625 210 475 81 q 714 293 658 239 q 833 417 769 347 l 746 411 l 744 417 l 743 422 q 810 476 743 464 l 906 485 q 1179 763 1001 603 q 1478 957 1397 957 q 1519 940 1499 957 q 1539 900 1539 922 q 1440 688 1539 838 l 1296 482 l 1300 475 m 989 485 l 1067 482 l 1142 483 l 1217 483 l 1372 689 q 1488 901 1475 832 q 1464 914 1479 914 q 1357 849 1439 914 q 1257 758 1294 799 l 1018 517 l 989 485 m 1554 1197 l 1624 1022 l 1585 1022 l 1503 1138 l 1363 1022 l 1324 1022 l 1485 1197 l 1554 1197 z "},"Ã":{"ha":1246,"x_min":128,"x_max":1642,"o":"m 1300 475 l 1326 461 l 1333 444 l 1328 428 l 1253 425 q 1157 278 1197 354 q 1103 115 1103 178 q 1140 64 1103 64 q 1251 106 1190 64 l 1344 185 q 1360 172 1357 185 q 1267 72 1360 136 q 1133 8 1174 8 q 1075 46 1096 8 q 1054 121 1054 83 q 1096 282 1054 192 q 1181 426 1117 325 l 1017 428 l 931 426 l 768 263 q 574 100 657 154 q 465 46 515 64 q 364 28 414 28 q 213 90 299 28 q 128 215 128 151 q 140 240 128 226 q 167 256 153 254 q 249 135 222 161 q 379 81 301 81 q 625 210 475 81 q 714 293 658 239 q 833 417 769 347 l 746 411 l 744 417 l 743 422 q 810 476 743 464 l 906 485 q 1179 763 1001 603 q 1478 957 1397 957 q 1519 940 1499 957 q 1539 900 1539 922 q 1440 688 1539 838 l 1296 482 l 1300 475 m 989 485 l 1067 482 l 1142 483 l 1217 483 l 1372 689 q 1488 901 1475 832 q 1464 914 1479 914 q 1357 849 1439 914 q 1257 758 1294 799 l 1018 517 l 989 485 m 1642 1139 q 1544 1022 1614 1022 q 1469 1047 1515 1022 q 1406 1072 1428 1072 q 1349 1021 1374 1072 l 1319 1021 q 1417 1136 1344 1136 q 1488 1110 1447 1136 q 1551 1085 1529 1085 q 1592 1101 1579 1085 l 1614 1139 l 1642 1139 z "},"Ä":{"ha":1246,"x_min":128,"x_max":1618,"o":"m 1300 475 l 1326 461 l 1333 444 l 1328 428 l 1253 425 q 1157 278 1197 354 q 1103 115 1103 178 q 1140 64 1103 64 q 1251 106 1190 64 l 1344 185 q 1360 172 1357 185 q 1267 72 1360 136 q 1133 8 1174 8 q 1075 46 1096 8 q 1054 121 1054 83 q 1096 282 1054 192 q 1181 426 1117 325 l 1017 428 l 931 426 l 768 263 q 574 100 657 154 q 465 46 515 64 q 364 28 414 28 q 213 90 299 28 q 128 215 128 151 q 140 240 128 226 q 167 256 153 254 q 249 135 222 161 q 379 81 301 81 q 625 210 475 81 q 714 293 658 239 q 833 417 769 347 l 746 411 l 744 417 l 743 422 q 810 476 743 464 l 906 485 q 1179 763 1001 603 q 1478 957 1397 957 q 1519 940 1499 957 q 1539 900 1539 922 q 1440 688 1539 838 l 1296 482 l 1300 475 m 989 485 l 1067 482 l 1142 483 l 1217 483 l 1372 689 q 1488 901 1475 832 q 1464 914 1479 914 q 1357 849 1439 914 q 1257 758 1294 799 l 1018 517 l 989 485 m 1425 1079 q 1410 1040 1425 1058 q 1371 1021 1394 1021 q 1331 1038 1351 1021 q 1314 1076 1314 1054 q 1329 1116 1314 1099 q 1368 1133 1344 1133 q 1405 1118 1388 1133 q 1425 1079 1422 1103 m 1618 1079 q 1601 1040 1618 1058 q 1563 1022 1585 1022 q 1524 1037 1542 1022 q 1507 1074 1507 1051 q 1564 1135 1507 1135 q 1601 1118 1585 1135 q 1618 1079 1618 1101 z "},"Å":{"ha":1246,"x_min":128,"x_max":1575,"o":"m 1300 475 l 1326 461 l 1333 444 l 1328 428 l 1253 425 q 1157 278 1197 354 q 1103 115 1103 178 q 1140 64 1103 64 q 1251 106 1190 64 l 1344 185 q 1360 172 1357 185 q 1267 72 1360 136 q 1133 8 1174 8 q 1075 46 1096 8 q 1054 121 1054 83 q 1096 282 1054 192 q 1181 426 1117 325 l 1017 428 l 931 426 l 768 263 q 574 100 657 154 q 465 46 515 64 q 364 28 414 28 q 213 90 299 28 q 128 215 128 151 q 140 240 128 226 q 167 256 153 254 q 249 135 222 161 q 379 81 301 81 q 625 210 475 81 q 714 293 658 239 q 833 417 769 347 l 746 411 l 744 417 l 743 422 q 810 476 743 464 l 906 485 q 1179 763 1001 603 q 1478 957 1397 957 q 1519 940 1499 957 q 1539 900 1539 922 q 1440 688 1539 838 l 1296 482 l 1300 475 m 989 485 l 1067 482 l 1142 483 l 1217 483 l 1372 689 q 1488 901 1475 832 q 1464 914 1479 914 q 1357 849 1439 914 q 1257 758 1294 799 l 1018 517 l 989 485 m 1575 1115 q 1549 1049 1575 1075 q 1479 1024 1522 1024 q 1413 1050 1440 1024 q 1386 1115 1386 1076 q 1414 1183 1386 1156 q 1481 1211 1442 1211 q 1547 1183 1518 1211 q 1575 1115 1575 1154 m 1425 1115 q 1442 1078 1425 1096 q 1481 1060 1458 1060 q 1518 1076 1500 1060 q 1536 1115 1536 1093 q 1519 1154 1536 1136 q 1481 1172 1503 1172 q 1440 1156 1460 1172 q 1425 1115 1425 1138 z "},"Æ":{"ha":1693,"x_min":128,"x_max":2026,"o":"m 1544 549 q 1408 524 1421 549 q 1567 453 1475 453 q 1664 501 1664 453 q 1544 549 1643 549 m 1488 901 q 1465 914 1479 914 q 1358 849 1438 914 q 1257 758 1297 801 l 1018 517 l 989 485 l 1211 482 q 1339 560 1233 501 q 1447 793 1339 690 q 1488 901 1474 849 m 931 426 l 768 263 q 574 100 657 154 q 465 46 515 64 q 364 28 414 28 q 213 90 299 28 q 128 215 128 151 q 140 240 128 226 q 167 256 153 254 q 249 135 222 161 q 379 81 301 81 q 625 210 475 81 q 714 293 658 239 q 833 417 769 347 l 746 411 l 744 417 l 743 422 q 810 476 743 464 l 906 485 q 1176 761 1000 603 q 1478 957 1393 957 q 1519 938 1500 957 q 1539 897 1539 921 q 1529 857 1539 881 q 1861 965 1711 965 q 1964 949 1915 965 q 2026 878 2026 925 q 1946 760 2026 819 q 1803 701 1865 701 q 1769 729 1775 701 q 1832 754 1804 742 q 1892 786 1860 767 q 1976 874 1976 838 q 1874 914 1976 914 q 1614 842 1744 914 q 1415 660 1483 771 q 1390 586 1390 618 l 1392 581 l 1393 574 q 1542 593 1463 593 q 1650 576 1604 593 q 1715 503 1715 553 q 1664 426 1715 453 q 1567 406 1624 406 q 1393 464 1460 406 q 1351 506 1383 481 q 1185 378 1254 465 q 1108 186 1108 282 q 1301 6 1108 6 q 1528 65 1413 6 q 1726 193 1569 89 l 1739 179 q 1546 8 1636 64 q 1303 -61 1432 -61 q 1126 4 1201 -61 q 1044 174 1044 74 q 1074 307 1044 235 q 1150 426 1103 379 l 1004 428 l 931 426 z "},"Ç":{"ha":792,"x_min":156,"x_max":1053,"o":"m 367 -81 l 410 -76 q 531 -187 531 -76 q 476 -267 531 -235 q 378 -292 431 -292 q 239 -262 318 -292 l 258 -228 q 368 -249 311 -249 q 468 -172 468 -249 q 444 -133 468 -150 q 397 -115 421 -115 q 317 -131 357 -115 l 296 -114 l 379 -1 q 214 86 279 -1 q 156 272 156 164 q 271 593 156 428 q 548 853 378 746 q 869 960 718 960 q 990 928 940 960 q 1053 825 1053 890 q 929 612 1053 733 q 714 490 806 490 q 672 512 689 490 q 654 560 654 533 q 700 669 654 611 q 799 726 746 726 q 821 699 815 726 q 749 646 765 663 q 710 571 710 610 q 735 554 710 554 q 906 659 807 554 q 1006 839 1006 764 q 885 921 1006 921 q 585 817 747 921 q 326 567 431 717 q 217 268 217 407 q 407 58 217 58 q 749 214 558 58 l 764 201 q 619 58 719 115 q 522 14 568 29 q 425 -1 476 -1 l 367 -81 z "},"È":{"ha":724,"x_min":143,"x_max":1125,"o":"m 1075 872 q 975 915 1075 915 q 710 842 846 915 q 513 660 575 769 q 489 586 489 617 l 490 581 l 492 574 q 640 593 561 593 q 749 576 703 593 q 813 503 813 553 q 763 426 813 454 q 665 406 722 406 q 492 464 558 406 l 450 506 q 283 378 353 465 q 207 186 207 282 q 400 6 207 6 q 626 65 511 6 q 825 193 668 89 l 838 179 q 644 10 739 67 q 400 -60 531 -60 q 224 7 304 -60 q 143 174 143 74 q 233 408 143 308 q 438 560 299 482 q 621 854 438 728 q 961 965 785 965 q 1063 947 1017 965 q 1125 878 1125 924 q 1042 758 1125 821 q 903 701 964 701 q 868 729 874 701 q 931 754 903 742 q 990 786 958 767 q 1075 872 1075 835 m 642 549 q 507 524 518 549 q 667 453 574 453 q 763 501 763 453 q 642 549 742 549 m 1007 1022 l 907 1090 q 831 1168 831 1146 q 869 1203 831 1203 q 964 1126 896 1203 l 1049 1022 l 1007 1022 z "},"É":{"ha":724,"x_min":143,"x_max":1140,"o":"m 1075 872 q 975 915 1075 915 q 710 842 846 915 q 513 660 575 769 q 489 586 489 617 l 490 581 l 492 574 q 640 593 561 593 q 749 576 703 593 q 813 503 813 553 q 763 426 813 454 q 665 406 722 406 q 492 464 558 406 l 450 506 q 283 378 353 465 q 207 186 207 282 q 400 6 207 6 q 626 65 511 6 q 825 193 668 89 l 838 179 q 644 10 739 67 q 400 -60 531 -60 q 224 7 304 -60 q 143 174 143 74 q 233 408 143 308 q 438 560 299 482 q 621 854 438 728 q 961 965 785 965 q 1063 947 1017 965 q 1125 878 1125 924 q 1042 758 1125 821 q 903 701 964 701 q 868 729 874 701 q 931 754 903 742 q 990 786 958 767 q 1075 872 1075 835 m 642 549 q 507 524 518 549 q 667 453 574 453 q 763 501 763 453 q 642 549 742 549 m 1106 1203 q 1128 1193 1118 1203 q 1140 1167 1138 1183 q 1064 1090 1140 1146 l 964 1022 l 922 1022 l 1008 1128 q 1106 1203 1074 1203 z "},"Ê":{"ha":724,"x_min":143,"x_max":1125,"o":"m 1075 872 q 975 915 1075 915 q 710 842 846 915 q 513 660 575 769 q 489 586 489 617 l 490 581 l 492 574 q 640 593 561 593 q 749 576 703 593 q 813 503 813 553 q 763 426 813 454 q 665 406 722 406 q 492 464 558 406 l 450 506 q 283 378 353 465 q 207 186 207 282 q 400 6 207 6 q 626 65 511 6 q 825 193 668 89 l 838 179 q 644 10 739 67 q 400 -60 531 -60 q 224 7 304 -60 q 143 174 143 74 q 233 408 143 308 q 438 560 299 482 q 621 854 438 728 q 961 965 785 965 q 1063 947 1017 965 q 1125 878 1125 924 q 1042 758 1125 821 q 903 701 964 701 q 868 729 874 701 q 931 754 903 742 q 990 786 958 767 q 1075 872 1075 835 m 642 549 q 507 524 518 549 q 667 453 574 453 q 763 501 763 453 q 642 549 742 549 m 1017 1197 l 1086 1022 l 1049 1022 l 967 1138 l 825 1022 l 786 1022 l 947 1197 l 1017 1197 z "},"Ë":{"ha":724,"x_min":143,"x_max":1125,"o":"m 1075 872 q 975 915 1075 915 q 710 842 846 915 q 513 660 575 769 q 489 586 489 617 l 490 581 l 492 574 q 640 593 561 593 q 749 576 703 593 q 813 503 813 553 q 763 426 813 454 q 665 406 722 406 q 492 464 558 406 l 450 506 q 283 378 353 465 q 207 186 207 282 q 400 6 207 6 q 626 65 511 6 q 825 193 668 89 l 838 179 q 644 10 739 67 q 400 -60 531 -60 q 224 7 304 -60 q 143 174 143 74 q 233 408 143 308 q 438 560 299 482 q 621 854 438 728 q 961 965 785 965 q 1063 947 1017 965 q 1125 878 1125 924 q 1042 758 1125 821 q 903 701 964 701 q 868 729 874 701 q 931 754 903 742 q 990 786 958 767 q 1075 872 1075 835 m 642 549 q 507 524 518 549 q 667 453 574 453 q 763 501 763 453 q 642 549 742 549 m 926 1079 q 911 1038 926 1054 q 874 1021 899 1021 q 833 1038 854 1021 q 815 1076 818 1054 q 875 1133 815 1133 q 910 1117 893 1133 q 926 1079 926 1100 m 1119 1081 q 1104 1041 1119 1060 q 1065 1022 1089 1022 q 1025 1036 1044 1022 q 1008 1074 1008 1051 q 1067 1135 1008 1135 q 1103 1118 1086 1135 q 1119 1081 1119 1101 z "},"Ì":{"ha":672,"x_min":156,"x_max":1188,"o":"m 325 -6 q 197 79 247 -6 q 156 238 156 150 q 217 358 156 322 l 225 353 q 215 303 219 329 q 211 254 211 276 q 242 131 211 192 q 335 60 278 60 q 535 243 419 60 l 860 764 l 947 881 l 789 814 q 695 766 733 789 q 625 715 657 743 q 550 574 550 650 q 603 429 550 492 q 569 414 585 417 q 515 483 538 414 q 499 579 499 538 q 588 760 499 683 q 785 867 651 817 l 983 936 q 1013 950 992 939 q 1076 989 1033 961 q 1172 1025 1138 1025 l 1179 1022 l 1185 1018 l 1188 1011 l 1188 1003 q 1104 953 1188 990 q 1015 911 1021 917 q 965 846 993 893 l 922 769 l 625 268 q 325 -6 463 -6 m 1097 1075 l 997 1143 q 922 1221 922 1197 q 933 1246 922 1235 q 961 1257 944 1254 q 1140 1075 993 1257 l 1097 1075 z "},"Í":{"ha":672,"x_min":156,"x_max":1193,"o":"m 325 -6 q 197 79 247 -6 q 156 238 156 150 q 217 358 156 322 l 225 353 q 215 303 219 329 q 211 254 211 276 q 242 131 211 192 q 335 60 278 60 q 535 243 419 60 l 860 764 l 947 881 l 789 814 q 695 766 733 789 q 625 715 657 743 q 550 574 550 650 q 603 429 550 492 q 569 414 585 417 q 515 483 538 414 q 499 579 499 538 q 588 760 499 683 q 785 867 651 817 l 983 936 q 1013 950 992 939 q 1076 989 1033 961 q 1172 1025 1138 1025 l 1179 1022 l 1185 1018 l 1188 1011 l 1188 1003 q 1104 953 1188 990 q 1015 911 1021 917 q 965 846 993 893 l 922 769 l 625 268 q 325 -6 463 -6 m 1158 1257 q 1180 1246 1169 1257 q 1193 1219 1190 1235 q 1117 1143 1193 1199 l 1017 1075 l 975 1075 l 1061 1181 q 1158 1257 1129 1257 z "},"Î":{"ha":672,"x_min":156,"x_max":1188,"o":"m 325 -6 q 197 79 247 -6 q 156 238 156 150 q 217 358 156 322 l 225 353 q 215 303 219 329 q 211 254 211 276 q 242 131 211 192 q 335 60 278 60 q 535 243 419 60 l 860 764 l 947 881 l 789 814 q 695 766 733 789 q 625 715 657 743 q 550 574 550 650 q 603 429 550 492 q 569 414 585 417 q 515 483 538 414 q 499 579 499 538 q 588 760 499 683 q 785 867 651 817 l 983 936 q 1013 950 992 939 q 1076 989 1033 961 q 1172 1025 1138 1025 l 1179 1022 l 1185 1018 l 1188 1011 l 1188 1003 q 1104 953 1188 990 q 1015 911 1021 917 q 965 846 993 893 l 922 769 l 625 268 q 325 -6 463 -6 m 1096 1250 l 1164 1075 l 1128 1075 l 1046 1190 l 904 1075 l 864 1075 l 1026 1250 l 1096 1250 z "},"Ï":{"ha":672,"x_min":156,"x_max":1188,"o":"m 325 -6 q 197 79 247 -6 q 156 238 156 150 q 217 358 156 322 l 225 353 q 215 303 219 329 q 211 254 211 276 q 242 131 211 192 q 335 60 278 60 q 535 243 419 60 l 860 764 l 947 881 l 789 814 q 695 766 733 789 q 625 715 657 743 q 550 574 550 650 q 603 429 550 492 q 569 414 585 417 q 515 483 538 414 q 499 579 499 538 q 588 760 499 683 q 785 867 651 817 l 983 936 q 1013 950 992 939 q 1076 989 1033 961 q 1172 1025 1138 1025 l 1179 1022 l 1185 1018 l 1188 1011 l 1188 1003 q 1104 953 1188 990 q 1015 911 1021 917 q 965 846 993 893 l 922 769 l 625 268 q 325 -6 463 -6 m 965 1132 q 908 1074 965 1074 q 872 1090 893 1074 q 856 1126 856 1107 q 913 1186 856 1186 q 948 1169 931 1186 q 965 1132 965 1151 m 1160 1132 q 1142 1091 1160 1107 q 1100 1075 1124 1075 q 1064 1090 1081 1075 q 1049 1126 1051 1106 q 1107 1188 1049 1188 q 1143 1170 1126 1188 q 1160 1132 1160 1153 z "},"Ñ":{"ha":1167,"x_min":178,"x_max":1485,"o":"m 1458 946 q 1485 904 1485 938 q 1310 568 1485 879 l 1097 197 q 1019 78 1063 135 q 922 -7 956 -7 q 883 100 883 -7 q 938 474 883 229 q 972 644 957 568 q 999 846 999 782 l 990 851 q 972 836 978 851 l 946 804 l 531 189 q 438 60 458 82 q 303 -12 372 -12 q 213 35 249 -12 q 178 140 178 83 q 185 172 178 160 q 203 178 192 178 l 210 178 q 226 138 217 174 q 249 75 235 94 q 301 43 268 43 q 385 90 342 43 q 446 172 400 106 l 860 769 q 933 860 889 814 q 1018 925 992 925 q 1056 858 1056 925 l 1040 758 l 943 150 l 940 119 q 951 86 940 92 q 1201 492 976 103 l 1458 946 m 1446 1139 q 1347 1022 1418 1022 q 1274 1047 1319 1022 q 1208 1072 1232 1072 q 1153 1021 1175 1072 l 1122 1021 q 1221 1136 1151 1136 q 1290 1110 1247 1136 q 1354 1085 1332 1085 q 1393 1101 1381 1085 l 1415 1139 l 1446 1139 z "},"Ò":{"ha":867,"x_min":156,"x_max":1044,"o":"m 553 794 q 329 535 419 672 q 215 219 215 360 q 259 85 215 149 q 374 21 303 21 q 644 151 493 21 q 888 442 785 272 q 992 731 992 613 q 951 836 992 794 q 844 878 910 878 q 657 792 765 878 q 508 640 576 726 q 419 524 478 596 l 400 543 q 581 799 442 676 q 858 929 728 929 q 992 878 940 929 q 1044 743 1044 828 q 940 423 1044 607 q 683 107 835 239 q 386 -33 522 -33 q 224 38 292 -33 q 156 207 156 108 q 278 568 156 360 q 543 818 401 776 l 553 794 m 942 1022 l 842 1090 q 765 1168 765 1146 q 804 1203 765 1203 q 899 1126 828 1203 l 983 1022 l 942 1022 z "},"Ó":{"ha":867,"x_min":156,"x_max":1044,"o":"m 553 794 q 329 535 419 672 q 215 219 215 360 q 259 85 215 149 q 374 21 303 21 q 644 151 493 21 q 888 442 785 272 q 992 731 992 613 q 951 836 992 794 q 844 878 910 878 q 657 792 765 878 q 508 640 576 726 q 419 524 478 596 l 400 543 q 581 799 442 676 q 858 929 728 929 q 992 878 940 929 q 1044 743 1044 828 q 940 423 1044 607 q 683 107 835 239 q 386 -33 522 -33 q 224 38 292 -33 q 156 207 156 108 q 278 568 156 360 q 543 818 401 776 l 553 794 m 988 1203 q 1010 1192 999 1203 q 1022 1167 1021 1182 q 946 1090 1022 1146 l 846 1022 l 804 1022 l 890 1128 q 988 1203 956 1203 z "},"Ô":{"ha":867,"x_min":156,"x_max":1044,"o":"m 553 794 q 329 535 419 672 q 215 219 215 360 q 259 85 215 149 q 374 21 303 21 q 644 151 493 21 q 888 442 785 272 q 992 731 992 613 q 951 836 992 794 q 844 878 910 878 q 657 792 765 878 q 508 640 576 726 q 419 524 478 596 l 400 543 q 581 799 442 676 q 858 929 728 929 q 992 878 940 929 q 1044 743 1044 828 q 940 423 1044 607 q 683 107 835 239 q 386 -33 522 -33 q 224 38 292 -33 q 156 207 156 108 q 278 568 156 360 q 543 818 401 776 l 553 794 m 951 1197 l 1019 1022 l 983 1022 l 901 1138 l 760 1022 l 721 1022 l 882 1197 l 951 1197 z "},"Õ":{"ha":867,"x_min":156,"x_max":1044,"o":"m 553 794 q 329 535 419 672 q 215 219 215 360 q 259 85 215 149 q 374 21 303 21 q 644 151 493 21 q 888 442 785 272 q 992 731 992 613 q 951 836 992 794 q 844 878 910 878 q 657 792 765 878 q 508 640 576 726 q 419 524 478 596 l 400 543 q 581 799 442 676 q 858 929 728 929 q 992 878 940 929 q 1044 743 1044 828 q 940 423 1044 607 q 683 107 835 239 q 386 -33 522 -33 q 224 38 292 -33 q 156 207 156 108 q 278 568 156 360 q 543 818 401 776 l 553 794 m 1039 1139 q 942 1022 1011 1022 q 867 1047 913 1022 q 803 1072 825 1072 q 746 1021 771 1072 l 717 1021 q 814 1136 746 1136 q 883 1110 840 1136 q 947 1085 925 1085 q 988 1101 975 1085 l 1010 1139 l 1039 1139 z "},"Ö":{"ha":867,"x_min":156,"x_max":1044,"o":"m 553 794 q 329 535 419 672 q 215 219 215 360 q 259 85 215 149 q 374 21 303 21 q 644 151 493 21 q 888 442 785 272 q 992 731 992 613 q 951 836 992 794 q 844 878 910 878 q 657 792 765 878 q 508 640 576 726 q 419 524 478 596 l 400 543 q 581 799 442 676 q 858 929 728 929 q 992 878 940 929 q 1044 743 1044 828 q 940 423 1044 607 q 683 107 835 239 q 386 -33 522 -33 q 224 38 292 -33 q 156 207 156 108 q 278 568 156 360 q 543 818 401 776 l 553 794 m 821 1076 q 806 1038 821 1054 q 768 1021 790 1021 q 731 1035 749 1021 q 711 1071 713 1050 q 724 1115 711 1096 q 763 1133 738 1133 q 821 1076 821 1133 m 1015 1079 q 999 1040 1015 1058 q 960 1022 982 1022 q 922 1037 939 1022 q 904 1074 904 1051 q 961 1135 904 1135 q 999 1118 982 1135 q 1015 1079 1015 1101 z "},"Ø":{"ha":867,"x_min":154,"x_max":1046,"o":"m 157 206 q 276 564 157 363 q 543 818 401 776 l 553 794 q 329 535 419 672 q 215 219 215 360 q 258 83 215 144 l 931 853 q 843 878 889 878 q 657 792 765 878 q 508 640 578 729 q 419 524 478 596 l 400 543 q 581 799 442 676 q 858 929 728 929 q 971 899 926 929 l 997 929 l 1046 929 l 997 875 q 1046 744 1046 822 q 941 424 1046 608 q 685 108 836 240 q 386 -32 521 -32 q 247 17 301 -32 l 204 -33 l 154 -33 l 219 40 q 157 206 157 111 m 374 19 q 644 151 494 19 q 888 442 785 271 q 992 731 992 613 q 958 828 992 788 l 282 58 q 374 19 329 19 z "},"Ù":{"ha":1121,"x_min":353,"x_max":1388,"o":"m 1388 918 l 1388 907 l 1110 557 q 944 160 944 325 q 1008 40 944 40 q 1197 164 1078 40 l 1217 140 q 993 -12 1117 -12 q 914 42 947 -12 q 888 139 888 90 q 944 365 888 238 l 849 256 q 682 101 781 176 q 488 6 558 6 q 397 65 440 6 q 353 172 353 125 q 478 469 353 296 q 711 740 544 561 q 836 904 836 874 q 814 925 836 925 q 689 864 776 925 q 623 818 651 840 q 571 774 594 796 l 543 781 q 665 905 564 839 q 832 971 767 971 q 851 969 842 971 q 878 955 860 967 q 896 919 896 943 q 771 715 896 861 l 539 443 q 414 169 414 278 q 438 105 414 133 q 497 76 463 76 q 814 297 606 76 q 1158 711 925 415 q 1361 942 1333 936 l 1388 918 m 1176 1022 l 1076 1090 q 1000 1168 1000 1146 q 1040 1203 1000 1203 q 1133 1126 1067 1203 l 1218 1022 l 1176 1022 z "},"Ú":{"ha":1121,"x_min":353,"x_max":1388,"o":"m 1388 918 l 1388 907 l 1110 557 q 944 160 944 325 q 1008 40 944 40 q 1197 164 1078 40 l 1217 140 q 993 -12 1117 -12 q 914 42 947 -12 q 888 139 888 90 q 944 365 888 238 l 849 256 q 682 101 781 176 q 488 6 558 6 q 397 65 440 6 q 353 172 353 125 q 478 469 353 296 q 711 740 544 561 q 836 904 836 874 q 814 925 836 925 q 689 864 776 925 q 623 818 651 840 q 571 774 594 796 l 543 781 q 665 905 564 839 q 832 971 767 971 q 851 969 842 971 q 878 955 860 967 q 896 919 896 943 q 771 715 896 861 l 539 443 q 414 169 414 278 q 438 105 414 133 q 497 76 463 76 q 814 297 606 76 q 1158 711 925 415 q 1361 942 1333 936 l 1388 918 m 1185 1203 q 1218 1167 1218 1203 q 1143 1090 1218 1147 l 1043 1022 l 1001 1022 l 1086 1128 q 1185 1203 1151 1203 z "},"Û":{"ha":1121,"x_min":353,"x_max":1388,"o":"m 1388 918 l 1388 907 l 1110 557 q 944 160 944 325 q 1008 40 944 40 q 1197 164 1078 40 l 1217 140 q 993 -12 1117 -12 q 914 42 947 -12 q 888 139 888 90 q 944 365 888 238 l 849 256 q 682 101 781 176 q 488 6 558 6 q 397 65 440 6 q 353 172 353 125 q 478 469 353 296 q 711 740 544 561 q 836 904 836 874 q 814 925 836 925 q 689 864 776 925 q 623 818 651 840 q 571 774 594 796 l 543 781 q 665 905 564 839 q 832 971 767 971 q 851 969 842 971 q 878 955 860 967 q 896 919 896 943 q 771 715 896 861 l 539 443 q 414 169 414 278 q 438 105 414 133 q 497 76 463 76 q 814 297 606 76 q 1158 711 925 415 q 1361 942 1333 936 l 1388 918 m 1186 1197 l 1257 1022 l 1218 1022 l 1138 1138 l 996 1022 l 956 1022 l 1118 1197 l 1186 1197 z "},"Ü":{"ha":1121,"x_min":353,"x_max":1388,"o":"m 1388 918 l 1388 907 l 1110 557 q 944 160 944 325 q 1008 40 944 40 q 1197 164 1078 40 l 1217 140 q 993 -12 1117 -12 q 914 42 947 -12 q 888 139 888 90 q 944 365 888 238 l 849 256 q 682 101 781 176 q 488 6 558 6 q 397 65 440 6 q 353 172 353 125 q 478 469 353 296 q 711 740 544 561 q 836 904 836 874 q 814 925 836 925 q 689 864 776 925 q 623 818 651 840 q 571 774 594 796 l 543 781 q 665 905 564 839 q 832 971 767 971 q 851 969 842 971 q 878 955 860 967 q 896 919 896 943 q 771 715 896 861 l 539 443 q 414 169 414 278 q 438 105 414 133 q 497 76 463 76 q 814 297 606 76 q 1158 711 925 415 q 1361 942 1333 936 l 1388 918 m 1071 1079 q 1056 1041 1071 1058 q 1018 1021 1042 1024 q 978 1038 999 1021 q 960 1076 963 1054 q 1018 1133 960 1133 q 1054 1117 1038 1133 q 1071 1079 1071 1100 m 1264 1079 q 1248 1040 1264 1058 q 1208 1022 1232 1022 q 1170 1037 1188 1022 q 1153 1074 1153 1051 q 1211 1135 1153 1135 q 1247 1117 1231 1135 q 1264 1079 1264 1100 z "},"ß":{"ha":513,"x_min":-117,"x_max":729,"o":"m 267 143 q 251 104 251 143 q 280 52 251 79 q 332 25 308 25 q 408 76 375 25 q 313 104 336 83 l 267 143 m 646 793 q 706 765 682 793 q 729 700 729 738 q 647 557 729 635 l 494 425 q 413 285 413 347 q 428 192 413 246 q 469 139 443 139 q 544 159 501 139 q 601 182 588 179 l 613 165 q 541 111 613 136 q 465 82 469 86 l 410 14 q 328 -17 376 -17 q 238 26 271 -17 q 204 128 204 68 q 244 214 204 214 q 301 168 263 214 q 385 122 340 122 l 401 124 q 373 197 386 143 q 360 281 360 250 q 443 442 360 356 l 597 574 q 681 701 681 647 q 669 730 681 717 q 639 746 657 743 q 399 514 585 746 q 176 214 274 358 q 11 -47 119 129 q -18 -102 0 -72 q -67 -174 -36 -132 q -90 -185 -74 -183 q -117 -157 -117 -185 q 363 560 -117 -82 q 646 793 538 793 z "},"à":{"ha":525,"x_min":43,"x_max":613,"o":"m 507 317 q 349 86 349 154 q 393 39 349 39 q 500 88 435 39 l 599 160 q 613 143 610 154 q 519 50 613 115 q 378 -15 426 -15 q 300 108 300 -15 q 106 -21 171 -21 q 61 6 82 -21 q 50 26 57 11 q 43 57 43 42 q 143 242 43 142 q 329 342 243 342 q 406 290 383 342 q 448 326 419 303 q 479 353 476 350 l 507 317 m 97 63 q 115 36 97 38 q 372 251 186 36 q 358 281 372 268 q 325 294 344 294 q 181 210 265 294 q 97 63 97 125 m 431 425 l 331 492 q 256 571 256 546 q 268 594 256 582 q 294 606 279 603 q 389 529 321 606 l 472 425 l 431 425 z "},"á":{"ha":525,"x_min":43,"x_max":613,"o":"m 507 317 q 349 86 349 154 q 393 39 349 39 q 500 88 435 39 l 599 160 q 613 143 610 154 q 519 50 613 115 q 378 -15 426 -15 q 300 108 300 -15 q 106 -21 171 -21 q 61 6 82 -21 q 50 26 57 11 q 43 57 43 42 q 143 242 43 142 q 329 342 243 342 q 406 290 383 342 q 448 326 419 303 q 479 353 476 350 l 507 317 m 97 63 q 115 36 97 38 q 372 251 186 36 q 358 281 372 268 q 325 294 344 294 q 181 210 265 294 q 97 63 97 125 m 476 606 q 500 596 490 606 q 513 569 510 586 q 336 425 513 547 l 293 425 l 379 531 q 476 606 446 606 z "},"â":{"ha":525,"x_min":43,"x_max":613,"o":"m 507 317 q 349 86 349 154 q 393 39 349 39 q 500 88 435 39 l 599 160 q 613 143 610 154 q 519 50 613 115 q 378 -15 426 -15 q 300 108 300 -15 q 106 -21 171 -21 q 61 6 82 -21 q 50 26 57 11 q 43 57 43 42 q 143 242 43 142 q 329 342 243 342 q 406 290 383 342 q 448 326 419 303 q 479 353 476 350 l 507 317 m 97 63 q 115 36 97 38 q 372 251 186 36 q 358 281 372 268 q 325 294 344 294 q 181 210 265 294 q 97 63 97 125 m 454 600 l 524 425 l 485 425 l 403 540 l 261 425 l 224 425 l 383 600 l 454 600 z "},"ã":{"ha":525,"x_min":43,"x_max":613,"o":"m 507 317 q 349 86 349 154 q 393 39 349 39 q 500 88 435 39 l 599 160 q 613 143 610 154 q 519 50 613 115 q 378 -15 426 -15 q 300 108 300 -15 q 106 -21 171 -21 q 61 6 82 -21 q 50 26 57 11 q 43 57 43 42 q 143 242 43 142 q 329 342 243 342 q 406 290 383 342 q 448 326 419 303 q 479 353 476 350 l 507 317 m 97 63 q 115 36 97 38 q 372 251 186 36 q 358 281 372 268 q 325 294 344 294 q 181 210 265 294 q 97 63 97 125 m 567 542 q 469 424 542 424 q 397 449 442 424 q 331 475 351 475 q 275 424 300 475 l 246 424 q 343 538 271 538 q 411 513 368 538 q 476 488 454 488 q 517 504 504 488 l 539 542 l 567 542 z "},"ä":{"ha":525,"x_min":43,"x_max":613,"o":"m 507 317 q 349 86 349 154 q 393 39 349 39 q 500 88 435 39 l 599 160 q 613 143 610 154 q 519 50 613 115 q 378 -15 426 -15 q 300 108 300 -15 q 106 -21 171 -21 q 61 6 82 -21 q 50 26 57 11 q 43 57 43 42 q 143 242 43 142 q 329 342 243 342 q 406 290 383 342 q 448 326 419 303 q 479 353 476 350 l 507 317 m 97 63 q 115 36 97 38 q 372 251 186 36 q 358 281 372 268 q 325 294 344 294 q 181 210 265 294 q 97 63 97 125 m 336 478 q 322 441 336 456 q 283 424 308 426 q 246 438 264 424 q 226 472 228 451 q 240 516 226 497 q 278 535 253 535 q 336 478 336 535 m 531 482 q 514 442 531 460 q 475 424 497 424 q 436 439 453 424 q 419 475 419 454 q 476 536 419 536 q 514 519 497 536 q 531 482 531 503 z "},"å":{"ha":525,"x_min":43,"x_max":613,"o":"m 507 317 q 349 86 349 154 q 393 39 349 39 q 500 88 435 39 l 599 160 q 613 143 610 154 q 519 50 613 115 q 378 -15 426 -15 q 300 108 300 -15 q 106 -21 171 -21 q 61 6 82 -21 q 50 26 57 11 q 43 57 43 42 q 143 242 43 142 q 329 342 243 342 q 406 290 383 342 q 448 326 419 303 q 479 353 476 350 l 507 317 m 97 63 q 115 36 97 38 q 372 251 186 36 q 358 281 372 268 q 325 294 344 294 q 181 210 265 294 q 97 63 97 125 m 506 518 q 478 451 506 478 q 411 425 451 425 q 344 451 371 425 q 317 518 317 478 q 344 585 317 557 q 413 613 372 613 q 478 585 450 613 q 506 518 506 557 m 356 518 q 372 481 356 499 q 413 463 389 463 q 450 479 432 463 q 468 518 468 496 q 451 556 468 538 q 413 574 435 574 q 374 558 392 574 q 356 518 356 542 z "},"æ":{"ha":615,"x_min":43,"x_max":693,"o":"m 358 119 q 428 168 396 144 q 471 201 461 192 q 554 311 532 254 l 542 317 q 433 239 513 317 q 358 119 385 192 m 97 63 q 115 36 97 38 q 372 251 186 36 q 358 281 372 268 q 325 294 344 294 q 181 210 265 294 q 97 63 97 125 m 106 -21 q 61 6 82 -21 q 50 26 57 11 q 43 57 43 42 q 143 242 43 142 q 329 342 243 342 q 406 290 383 342 l 400 279 q 556 357 481 357 q 592 344 576 357 q 608 311 608 331 q 364 67 608 215 q 425 28 381 28 q 560 79 482 28 l 678 169 q 693 144 690 163 q 574 35 644 83 q 426 -26 488 -26 q 335 17 369 -26 q 313 60 319 36 q 307 117 307 85 q 215 31 288 82 q 106 -21 142 -21 z "},"ç":{"ha":403,"x_min":51,"x_max":493,"o":"m 181 -81 l 228 -76 q 310 -104 276 -76 q 343 -181 343 -132 q 290 -267 343 -235 q 186 -292 246 -292 q 51 -262 129 -292 l 71 -228 q 182 -249 124 -249 q 281 -172 281 -249 q 254 -131 281 -147 q 230 -119 243 -124 q 201 -115 217 -115 q 129 -131 169 -115 l 108 -114 l 181 -17 q 102 20 138 -12 q 67 97 67 53 q 158 270 67 186 q 340 354 249 354 q 410 307 410 354 q 340 208 410 257 l 314 226 q 334 258 314 239 q 354 299 354 276 q 332 314 349 313 q 198 236 274 314 q 122 100 122 158 q 215 32 122 32 q 356 75 282 32 q 402 106 371 83 q 478 161 433 128 q 493 146 492 160 q 382 42 493 101 q 228 -17 285 -8 l 181 -81 z "},"è":{"ha":361,"x_min":63,"x_max":450,"o":"m 185 28 q 318 81 240 28 l 436 169 q 450 144 450 160 q 331 35 404 86 q 185 -26 246 -26 q 97 10 132 -26 q 63 100 63 47 q 146 269 63 182 q 314 357 229 357 q 349 344 333 357 q 365 311 365 331 q 122 67 365 217 q 185 28 139 28 m 117 119 q 229 201 208 181 q 313 311 290 256 l 299 317 q 190 239 268 317 q 117 119 144 193 m 325 425 l 225 493 q 150 571 150 547 q 163 594 150 582 q 190 606 174 603 q 283 528 215 606 l 369 425 l 325 425 z "},"é":{"ha":361,"x_min":63,"x_max":450,"o":"m 185 28 q 318 81 240 28 l 436 169 q 450 144 450 160 q 331 35 404 86 q 185 -26 246 -26 q 97 10 132 -26 q 63 100 63 47 q 146 269 63 182 q 314 357 229 357 q 349 344 333 357 q 365 311 365 331 q 122 67 365 217 q 185 28 139 28 m 117 119 q 229 201 208 181 q 313 311 290 256 l 299 317 q 190 239 268 317 q 117 119 144 193 m 411 606 q 433 596 424 606 q 446 569 443 586 q 269 425 446 542 l 228 425 l 314 531 q 411 606 381 606 z "},"ê":{"ha":361,"x_min":63,"x_max":457,"o":"m 185 28 q 318 81 240 28 l 436 169 q 450 144 450 160 q 331 35 404 86 q 185 -26 246 -26 q 97 10 132 -26 q 63 100 63 47 q 146 269 63 182 q 314 357 229 357 q 349 344 333 357 q 365 311 365 331 q 122 67 365 217 q 185 28 139 28 m 117 119 q 229 201 208 181 q 313 311 290 256 l 299 317 q 190 239 268 317 q 117 119 144 193 m 388 600 l 457 425 l 419 425 l 338 540 l 196 425 l 157 425 l 318 600 l 388 600 z "},"ë":{"ha":361,"x_min":63,"x_max":465,"o":"m 185 28 q 318 81 240 28 l 436 169 q 450 144 450 160 q 331 35 404 86 q 185 -26 246 -26 q 97 10 132 -26 q 63 100 63 47 q 146 269 63 182 q 314 357 229 357 q 349 344 333 357 q 365 311 365 331 q 122 67 365 217 q 185 28 139 28 m 117 119 q 229 201 208 181 q 313 311 290 256 l 299 317 q 190 239 268 317 q 117 119 144 193 m 271 481 q 257 442 271 460 q 218 424 243 424 q 181 438 199 424 q 161 472 163 451 q 174 516 161 497 q 213 535 188 535 q 253 519 236 535 q 271 481 271 504 m 465 482 q 449 443 465 461 q 410 425 432 425 q 354 475 354 425 q 411 536 354 536 q 449 519 432 536 q 465 482 465 503 z "},"ì":{"ha":243,"x_min":40,"x_max":344,"o":"m 93 61 q 128 54 104 57 q 236 97 179 54 l 333 168 l 344 143 q 113 -7 203 -7 q 63 15 86 -7 q 40 65 40 40 q 103 219 40 111 q 204 344 165 328 q 232 325 217 344 q 163 215 228 306 q 93 61 99 125 m 299 425 q 124 571 124 542 q 161 606 124 606 q 257 529 190 606 l 340 425 l 299 425 z "},"í":{"ha":243,"x_min":40,"x_max":393,"o":"m 89 74 l 90 67 l 93 61 q 126 44 106 44 q 232 94 163 44 l 328 174 q 347 153 344 174 l 346 144 q 239 49 269 69 q 171 7 201 21 q 113 -7 140 -7 q 63 15 86 -7 q 40 65 40 40 q 102 222 40 114 q 204 344 164 329 q 232 325 217 344 q 153 201 224 293 q 89 74 89 118 m 360 606 q 382 593 371 606 q 393 569 392 585 q 317 493 393 549 l 217 425 l 175 425 l 261 531 q 360 606 326 606 z "},"î":{"ha":243,"x_min":40,"x_max":392,"o":"m 89 74 l 90 67 l 93 61 q 126 44 106 44 q 232 94 163 44 l 328 174 q 347 153 344 174 l 346 144 q 239 49 269 69 q 171 7 201 21 q 113 -7 140 -7 q 63 15 86 -7 q 40 65 40 40 q 102 222 40 114 q 204 344 164 329 q 232 325 217 344 q 153 201 224 293 q 89 74 89 118 m 322 600 l 392 425 l 354 425 l 272 540 l 131 425 l 92 425 l 253 600 l 322 600 z "},"ï":{"ha":243,"x_min":40,"x_max":386,"o":"m 89 74 l 90 67 l 93 61 q 126 44 106 44 q 232 94 163 44 l 328 174 q 347 153 344 174 l 346 144 q 239 49 269 69 q 171 7 201 21 q 113 -7 140 -7 q 63 15 86 -7 q 40 65 40 40 q 102 222 40 114 q 204 344 164 329 q 232 325 217 344 q 153 201 224 293 q 89 74 89 118 m 193 475 q 175 438 193 454 q 133 424 157 424 q 99 440 118 424 q 83 478 86 456 q 140 535 83 535 q 178 516 163 535 q 193 475 193 497 m 386 482 q 369 442 386 460 q 331 424 353 424 q 292 439 308 424 q 275 475 275 454 q 332 536 275 536 q 369 519 353 536 q 386 482 386 503 z "},"ñ":{"ha":447,"x_min":1,"x_max":544,"o":"m 226 363 l 238 349 q 190 243 229 303 q 349 349 285 349 q 401 300 401 349 q 344 180 401 260 q 286 75 286 100 q 296 50 286 58 l 321 39 q 433 83 382 47 l 528 157 l 544 132 q 314 -17 407 -17 q 259 8 285 -17 q 233 60 233 33 q 282 182 233 111 q 350 297 340 263 l 338 306 q 179 175 297 306 l 33 -1 l 1 17 q 97 191 1 40 q 219 363 193 342 l 226 363 m 514 542 q 418 424 489 424 q 345 449 390 424 q 279 475 300 475 q 224 424 246 475 l 193 424 q 290 538 222 538 q 360 513 318 538 q 424 488 401 488 q 464 504 451 488 l 486 542 l 514 542 z "},"ò":{"ha":439,"x_min":57,"x_max":582,"o":"m 421 317 q 369 164 421 265 q 574 239 440 164 l 582 210 q 474 139 538 164 q 331 114 411 114 q 146 -19 226 -19 q 83 14 113 -19 q 57 85 57 49 q 114 219 57 132 q 224 314 176 314 q 243 308 233 314 q 358 393 299 393 q 403 369 385 393 q 421 317 421 344 m 151 33 q 278 129 199 33 q 241 181 251 147 q 231 271 231 214 q 149 192 193 261 q 106 85 106 124 q 118 51 106 67 q 151 33 131 35 m 269 225 q 280 189 269 206 q 310 169 290 172 q 372 314 372 264 q 342 350 372 350 q 289 303 314 350 q 269 225 269 260 m 417 425 q 240 571 240 543 q 253 594 240 582 q 279 606 264 603 q 374 529 306 606 l 458 425 l 417 425 z "},"ó":{"ha":439,"x_min":57,"x_max":582,"o":"m 421 317 q 369 164 421 265 q 574 239 440 164 l 582 210 q 474 139 538 164 q 331 114 411 114 q 146 -19 226 -19 q 83 14 113 -19 q 57 85 57 49 q 114 219 57 132 q 224 314 176 314 q 243 308 233 314 q 358 393 299 393 q 403 369 385 393 q 421 317 421 344 m 151 33 q 278 129 199 33 q 241 181 251 147 q 231 271 231 214 q 149 192 193 261 q 106 85 106 124 q 118 51 106 67 q 151 33 131 35 m 269 225 q 280 189 269 206 q 310 169 290 172 q 372 314 372 264 q 342 350 372 350 q 289 303 314 350 q 269 225 269 260 m 476 606 q 500 596 490 606 q 513 569 510 586 q 336 425 513 547 l 293 425 l 379 531 q 476 606 446 606 z "},"ô":{"ha":439,"x_min":57,"x_max":582,"o":"m 421 317 q 369 164 421 265 q 574 239 440 164 l 582 210 q 474 139 538 164 q 331 114 411 114 q 146 -19 226 -19 q 83 14 113 -19 q 57 85 57 49 q 114 219 57 132 q 224 314 176 314 q 243 308 233 314 q 358 393 299 393 q 403 369 385 393 q 421 317 421 344 m 151 33 q 278 129 199 33 q 241 181 251 147 q 231 271 231 214 q 149 192 193 261 q 106 85 106 124 q 118 51 106 67 q 151 33 131 35 m 269 225 q 280 189 269 206 q 310 169 290 172 q 372 314 372 264 q 342 350 372 350 q 289 303 314 350 q 269 225 269 260 m 426 600 l 497 425 l 458 425 l 378 540 l 236 425 l 196 425 l 358 600 l 426 600 z "},"õ":{"ha":439,"x_min":57,"x_max":582,"o":"m 421 317 q 369 164 421 265 q 574 239 440 164 l 582 210 q 474 139 538 164 q 331 114 411 114 q 146 -19 226 -19 q 83 14 113 -19 q 57 85 57 49 q 114 219 57 132 q 224 314 176 314 q 243 308 233 314 q 358 393 299 393 q 403 369 385 393 q 421 317 421 344 m 151 33 q 278 129 199 33 q 241 181 251 147 q 231 271 231 214 q 149 192 193 261 q 106 85 106 124 q 118 51 106 67 q 151 33 131 35 m 269 225 q 280 189 269 206 q 310 169 290 172 q 372 314 372 264 q 342 350 372 350 q 289 303 314 350 q 269 225 269 260 m 514 542 q 418 424 489 424 q 345 449 390 424 q 279 475 300 475 q 224 424 246 475 l 193 424 q 290 538 222 538 q 360 513 318 538 q 424 488 401 488 q 464 504 451 488 l 486 542 l 514 542 z "},"ö":{"ha":439,"x_min":57,"x_max":582,"o":"m 421 317 q 369 164 421 265 q 574 239 440 164 l 582 210 q 474 139 538 164 q 331 114 411 114 q 146 -19 226 -19 q 83 14 113 -19 q 57 85 57 49 q 114 219 57 132 q 224 314 176 314 q 243 308 233 314 q 358 393 299 393 q 403 369 385 393 q 421 317 421 344 m 151 33 q 278 129 199 33 q 241 181 251 147 q 231 271 231 214 q 149 192 193 261 q 106 85 106 124 q 118 51 106 67 q 151 33 131 35 m 269 225 q 280 189 269 206 q 310 169 290 172 q 372 314 372 264 q 342 350 372 350 q 289 303 314 350 q 269 225 269 260 m 311 481 q 296 442 311 460 q 257 424 281 424 q 217 439 236 424 q 200 478 200 456 q 258 535 200 535 q 294 518 278 535 q 311 481 311 501 m 504 482 q 488 443 504 461 q 449 425 472 425 q 410 438 428 425 q 393 475 393 451 q 450 536 393 536 q 488 519 471 536 q 504 482 504 503 z "},"ø":{"ha":439,"x_min":17,"x_max":582,"o":"m 342 350 q 269 235 288 350 l 369 333 q 342 350 358 350 m 310 169 q 372 304 372 261 l 274 203 q 310 169 286 169 m 232 196 q 229 221 229 210 q 229 244 229 232 q 231 271 229 257 q 150 192 194 261 q 106 85 106 122 l 107 79 l 107 72 l 232 196 m 121 50 q 157 33 132 33 q 278 129 203 33 q 243 172 257 146 l 121 50 m 426 393 l 461 393 l 415 347 l 421 317 q 369 164 421 265 q 574 239 438 164 l 582 210 q 474 139 538 164 q 331 114 411 114 q 146 -19 226 -19 q 85 14 114 -19 l 51 -19 l 17 -19 l 71 35 q 56 85 56 58 q 115 222 56 132 q 224 313 175 313 l 243 308 q 358 393 294 393 q 403 369 381 393 l 426 393 z "},"ù":{"ha":457,"x_min":47,"x_max":549,"o":"m 114 49 q 258 176 151 49 q 397 346 386 336 l 433 325 l 349 199 q 293 61 300 117 q 321 43 301 44 q 435 86 371 43 l 533 161 l 549 138 q 321 -12 411 -12 q 240 96 240 -12 q 100 -3 149 -3 q 64 16 78 -3 q 47 60 50 35 q 101 213 47 124 q 214 339 156 301 l 243 321 q 99 74 99 153 q 114 49 99 49 m 403 425 l 303 493 q 228 571 228 547 q 240 594 228 582 q 267 606 251 603 q 361 528 292 606 l 446 425 l 403 425 z "},"ú":{"ha":457,"x_min":47,"x_max":549,"o":"m 114 49 q 258 176 151 49 q 397 346 386 336 l 433 325 l 349 199 q 293 61 300 117 q 321 43 301 44 q 435 86 371 43 l 533 161 l 549 138 q 321 -12 411 -12 q 240 96 240 -12 q 100 -3 149 -3 q 64 16 78 -3 q 47 60 50 35 q 101 213 47 124 q 214 339 156 301 l 243 321 q 99 74 99 153 q 114 49 99 49 m 438 606 q 461 593 449 606 q 472 569 469 582 q 396 493 472 549 l 296 425 l 254 425 l 339 531 q 438 606 406 606 z "},"û":{"ha":457,"x_min":47,"x_max":549,"o":"m 114 49 q 258 176 151 49 q 397 346 386 336 l 433 325 l 349 199 q 293 61 300 117 q 321 43 301 44 q 435 86 371 43 l 533 161 l 549 138 q 321 -12 411 -12 q 240 96 240 -12 q 100 -3 149 -3 q 64 16 78 -3 q 47 60 50 35 q 101 213 47 124 q 214 339 156 301 l 243 321 q 99 74 99 153 q 114 49 99 49 m 426 600 l 497 425 l 458 425 l 378 540 l 236 425 l 196 425 l 358 600 l 426 600 z "},"ü":{"ha":457,"x_min":47,"x_max":549,"o":"m 114 49 q 258 176 151 49 q 397 346 386 336 l 433 325 l 349 199 q 293 61 300 117 q 321 43 301 44 q 435 86 371 43 l 533 161 l 549 138 q 321 -12 411 -12 q 240 96 240 -12 q 100 -3 149 -3 q 64 16 78 -3 q 47 60 50 35 q 101 213 47 124 q 214 339 156 301 l 243 321 q 99 74 99 153 q 114 49 99 49 m 311 481 q 296 442 311 460 q 257 424 281 424 q 217 439 236 424 q 200 478 200 456 q 258 535 200 535 q 294 518 278 535 q 311 481 311 501 m 504 482 q 488 443 504 461 q 449 425 472 425 q 410 438 428 425 q 393 475 393 451 q 450 536 393 536 q 488 519 471 536 q 504 482 504 503 z "},"ÿ":{"ha":401,"x_min":-157,"x_max":517,"o":"m 436 350 l 457 328 q 325 78 417 263 l 390 118 l 400 94 q 357 43 390 68 l 300 4 q 203 -153 271 -17 q 72 -381 124 -314 q -104 -496 -14 -496 q -141 -478 -125 -496 q -157 -437 -157 -460 q -17 -208 -157 -349 q 197 -17 19 -169 q 256 63 226 8 l 304 150 l 214 56 q 110 -7 149 -7 q 72 18 89 -7 q 57 65 60 40 q 118 229 57 117 q 225 342 179 342 q 250 328 238 342 l 250 321 q 114 78 114 144 q 128 60 114 61 q 281 185 164 60 l 425 350 l 436 350 m -112 -442 q -94 -461 -112 -460 q 65 -301 -36 -461 l 192 -82 l 186 -78 l 8 -249 q -112 -442 -112 -372 m 324 481 q 308 442 324 460 q 271 424 293 424 q 231 439 250 424 q 214 478 214 456 q 228 517 214 501 q 267 536 243 533 q 305 520 286 536 q 324 481 324 504 m 517 482 q 501 442 517 460 q 461 424 485 424 q 422 439 439 424 q 406 475 406 454 q 464 536 406 536 q 500 519 483 536 q 517 482 517 503 z "},"˙":{"ha":719,"x_min":125,"x_max":1004,"o":"m 208 333 q 189 196 189 253 q 214 83 189 133 q 304 22 246 22 q 528 144 396 22 q 699 350 635 246 q 601 324 642 324 q 515 374 553 324 q 485 474 485 422 q 625 810 485 624 q 915 1007 772 1007 q 978 977 953 1007 q 1004 906 1004 947 q 888 550 1004 782 q 762 333 828 432 q 618 150 696 235 q 318 -39 446 -39 q 178 20 232 -39 q 125 167 125 79 q 183 347 125 269 l 208 333 m 621 378 q 713 410 671 378 q 861 633 769 450 q 953 888 953 815 q 925 960 953 938 l 900 969 l 896 964 q 663 772 778 931 q 549 488 549 613 q 567 413 549 449 q 621 378 585 378 z "},"ı":{"ha":243,"x_min":40,"x_max":347,"o":"m 89 74 l 90 67 l 93 61 q 126 44 106 44 q 232 94 163 44 l 328 174 q 347 153 344 174 l 346 144 q 239 49 269 69 q 171 7 201 21 q 113 -7 140 -7 q 63 15 86 -7 q 40 65 40 40 q 102 222 40 114 q 204 344 164 329 q 232 325 217 344 q 153 201 224 293 q 89 74 89 118 z "},"˚":{"ha":328,"x_min":317,"x_max":506,"o":"m 506 518 q 478 451 506 478 q 411 425 451 425 q 344 451 371 425 q 317 518 317 478 q 344 585 317 557 q 413 613 372 613 q 478 585 450 613 q 506 518 506 557 m 356 518 q 372 481 356 499 q 413 463 389 463 q 450 479 432 463 q 468 518 468 496 q 451 556 468 538 q 413 574 435 574 q 374 558 392 574 q 356 518 356 542 z "},"∕":{"ha":844,"x_min":310,"x_max":1278,"o":"m 367 146 q 476 25 367 25 q 701 210 567 25 l 904 489 l 1006 614 q 971 592 993 611 q 651 338 815 443 l 632 338 l 613 336 q 539 367 569 336 q 511 444 511 399 q 585 636 511 522 q 719 821 625 701 q 793 929 790 911 l 782 938 l 768 944 q 629 881 728 944 q 501 782 546 826 l 490 786 l 486 797 q 610 927 486 851 q 794 1003 733 1003 q 857 944 857 1003 q 782 800 857 900 l 640 624 q 565 458 565 521 q 582 417 565 439 q 621 393 599 394 q 844 532 688 393 q 1110 792 931 608 q 1257 931 1243 929 q 1263 928 1260 929 q 1271 921 1267 926 q 1278 903 1275 915 q 1244 843 1278 888 l 1199 785 l 753 176 q 460 -43 592 -43 q 353 7 399 -43 q 310 122 310 58 q 328 234 310 161 q 372 307 346 307 l 388 306 l 396 293 q 381 218 396 267 q 367 146 367 169 m 1031 1076 q 1015 1038 1031 1054 q 978 1021 1000 1021 q 940 1035 958 1021 q 921 1071 922 1050 q 934 1115 921 1096 q 972 1133 947 1133 q 1031 1076 1031 1133 m 1225 1079 q 1208 1039 1225 1060 q 1169 1022 1192 1022 q 1114 1074 1114 1022 q 1171 1135 1114 1135 q 1208 1118 1192 1135 q 1225 1079 1225 1101 z "},"Ē":{"ha":401,"x_min":-157,"x_max":485,"o":"m 436 350 l 457 328 q 325 78 417 263 l 390 118 l 400 94 q 357 43 390 68 l 300 4 q 203 -153 271 -17 q 72 -381 124 -314 q -104 -496 -14 -496 q -141 -478 -125 -496 q -157 -437 -157 -460 q -17 -208 -157 -349 q 197 -17 19 -169 q 256 63 226 8 l 304 150 l 214 56 q 110 -7 149 -7 q 72 18 89 -7 q 57 65 60 40 q 118 229 57 117 q 225 342 179 342 q 250 328 238 342 l 250 321 q 114 78 114 144 q 128 60 114 61 q 281 185 164 60 l 425 350 l 436 350 m -112 -442 q -94 -461 -112 -460 q 65 -301 -36 -461 l 192 -82 l 186 -78 l 8 -249 q -112 -442 -112 -372 m 451 606 q 474 593 463 606 q 485 569 483 585 q 410 493 485 550 l 310 425 l 268 425 l 353 531 q 451 606 418 606 z "},"ē":{"ha":535,"x_min":-169,"x_max":547,"o":"m 354 281 q 493 344 439 344 q 531 327 514 344 q 547 290 547 310 q 465 104 547 211 q 304 -3 383 -3 q 247 43 276 -3 q 90 -267 104 -243 q -117 -496 -42 -496 q -154 -472 -139 -496 q -169 -425 -169 -447 q -90 -204 -169 -332 q 82 17 -31 -106 l 250 196 q 324 338 271 218 l 221 232 q 106 144 157 168 q 86 156 93 146 l 93 175 q 290 358 151 226 l 338 414 q 388 460 371 454 l 418 443 l 354 281 m 275 92 q 284 60 275 78 q 307 40 293 42 q 420 130 350 40 q 490 267 490 219 q 469 301 490 299 q 344 226 413 301 q 275 92 275 151 m 204 100 q 179 67 193 83 q 158 43 165 51 l 108 -11 q -33 -211 46 -86 q -129 -425 -129 -365 q -124 -444 -129 -433 q -108 -456 -118 -454 q 75 -206 -54 -456 q 222 113 163 -35 l 204 100 z "},"Ĕ":{"ha":774,"x_min":86,"x_max":897,"o":"m 531 288 q 526 260 531 276 q 511 222 522 244 q 697 349 625 349 q 731 333 717 349 q 747 294 744 317 q 693 181 747 254 q 639 79 639 108 q 676 46 639 46 q 785 93 724 46 q 883 164 876 161 q 897 146 897 160 q 888 129 897 138 q 788 41 867 93 q 669 -11 710 -11 q 608 14 639 -11 q 578 71 578 39 q 638 189 578 114 q 697 293 697 264 l 688 299 q 518 174 618 278 l 378 6 l 342 17 q 404 128 344 33 q 479 282 464 224 l 468 296 q 292 132 408 269 q 169 6 186 7 q 149 24 154 6 l 151 39 q 292 278 292 238 q 279 300 292 292 q 178 225 243 300 q 97 150 114 150 l 86 178 q 128 231 106 206 q 176 282 150 257 q 286 350 249 350 q 320 333 306 350 q 338 293 335 317 q 325 232 338 269 q 481 349 421 349 q 517 329 501 349 q 531 288 528 311 z "},"ĕ":{"ha":565,"x_min":193,"x_max":521,"o":"m 519 194 l 428 197 l 314 196 l 276 190 l 240 186 q 193 226 207 186 q 390 251 289 251 q 504 242 454 251 q 521 206 521 217 l 521 200 l 519 194 z "},"€":{"ha":744,"x_min":249,"x_max":813,"o":"m 525 300 l 393 300 q 368 182 368 231 q 388 106 368 143 q 444 68 407 68 q 561 133 500 68 l 519 40 q 425 17 472 17 q 336 68 371 17 q 306 169 306 117 q 331 300 306 225 l 249 300 l 285 340 l 346 340 l 363 381 l 286 381 l 322 421 l 383 421 q 536 621 451 544 q 725 710 636 710 q 813 625 796 710 l 763 569 l 764 589 q 715 667 764 667 q 574 592 651 667 q 447 421 508 526 l 633 421 l 597 381 l 426 381 l 408 340 l 561 340 l 525 300 z "},"ė":{"ha":582,"x_min":83,"x_max":678,"o":"m 551 301 q 494 182 551 258 q 429 56 438 106 q 457 47 440 47 q 565 94 501 47 l 665 168 l 678 153 q 576 49 644 100 q 447 -11 500 -11 q 399 13 421 -11 q 378 65 378 36 q 437 194 378 111 q 499 296 496 276 l 488 311 q 297 142 425 289 q 169 3 176 4 q 149 22 149 3 q 217 144 149 44 q 286 275 286 244 q 269 306 286 290 q 183 232 232 285 l 106 150 l 93 150 q 83 168 86 158 q 163 278 83 201 q 281 354 242 354 q 319 334 303 354 q 335 290 335 314 q 325 239 335 276 q 403 315 385 301 q 453 348 431 338 q 497 358 475 358 q 535 341 518 358 q 551 301 551 324 z "},"Ę":{"ha":744,"x_min":249,"x_max":813,"o":"m 425 17 q 336 68 371 17 q 306 169 306 117 q 439 510 306 319 q 725 710 581 710 q 813 625 796 710 l 763 569 l 764 589 q 715 667 764 667 q 483 481 607 667 q 368 182 368 304 q 388 106 368 143 q 444 68 407 68 q 561 133 500 68 l 519 40 q 425 17 472 17 m 597 381 l 286 381 l 322 421 l 633 421 l 597 381 m 525 300 l 249 300 l 285 340 l 561 340 l 525 300 z "}}}
